<?xml version="1.0" encoding="utf-8" standalone="no"?>
<!DOCTYPE svg PUBLIC "-//W3C//DTD SVG 1.1//EN"
  "http://www.w3.org/Graphics/SVG/1.1/DTD/svg11.dtd">
<!-- Created with matplotlib (https://matplotlib.org/) -->
<svg height="345.6pt" version="1.1" viewBox="0 0 460.8 345.6" width="460.8pt" xmlns="http://www.w3.org/2000/svg" xmlns:xlink="http://www.w3.org/1999/xlink">
 <metadata>
  <rdf:RDF xmlns:cc="http://creativecommons.org/ns#" xmlns:dc="http://purl.org/dc/elements/1.1/" xmlns:rdf="http://www.w3.org/1999/02/22-rdf-syntax-ns#">
   <cc:Work>
    <dc:type rdf:resource="http://purl.org/dc/dcmitype/StillImage"/>
    <dc:date>2020-10-20T17:35:03.591708</dc:date>
    <dc:format>image/svg+xml</dc:format>
    <dc:creator>
     <cc:Agent>
      <dc:title>Matplotlib v3.3.2, https://matplotlib.org/</dc:title>
     </cc:Agent>
    </dc:creator>
   </cc:Work>
  </rdf:RDF>
 </metadata>
 <defs>
  <style type="text/css">*{stroke-linecap:butt;stroke-linejoin:round;}</style>
 </defs>
 <g id="figure_1">
  <g id="patch_1">
   <path d="M 0 345.6 
L 460.8 345.6 
L 460.8 0 
L 0 0 
z
" style="fill:#ffffff;"/>
  </g>
  <g id="axes_1">
   <g id="patch_2">
    <path d="M 57.6 307.584 
L 414.72 307.584 
L 414.72 41.472 
L 57.6 41.472 
z
" style="fill:#ffffff;"/>
   </g>
   <g id="matplotlib.axis_1">
    <g id="xtick_1">
     <g id="line2d_1">
      <path clip-path="url(#pbfdb7db301)" d="M 57.6 307.584 
L 57.6 41.472 
" style="fill:none;stroke:#b0b0b0;stroke-linecap:square;stroke-width:0.8;"/>
     </g>
     <g id="line2d_2">
      <defs>
       <path d="M 0 0 
L 0 3.5 
" id="m1d142afff4" style="stroke:#000000;stroke-width:0.8;"/>
      </defs>
      <g>
       <use style="stroke:#000000;stroke-width:0.8;" x="57.6" xlink:href="#m1d142afff4" y="307.584"/>
      </g>
     </g>
     <g id="text_1">
      <!-- 0.4 -->
      <g transform="translate(49.648437 322.182437)scale(0.1 -0.1)">
       <defs>
        <path d="M 31.78125 66.40625 
Q 24.171875 66.40625 20.328125 58.90625 
Q 16.5 51.421875 16.5 36.375 
Q 16.5 21.390625 20.328125 13.890625 
Q 24.171875 6.390625 31.78125 6.390625 
Q 39.453125 6.390625 43.28125 13.890625 
Q 47.125 21.390625 47.125 36.375 
Q 47.125 51.421875 43.28125 58.90625 
Q 39.453125 66.40625 31.78125 66.40625 
z
M 31.78125 74.21875 
Q 44.046875 74.21875 50.515625 64.515625 
Q 56.984375 54.828125 56.984375 36.375 
Q 56.984375 17.96875 50.515625 8.265625 
Q 44.046875 -1.421875 31.78125 -1.421875 
Q 19.53125 -1.421875 13.0625 8.265625 
Q 6.59375 17.96875 6.59375 36.375 
Q 6.59375 54.828125 13.0625 64.515625 
Q 19.53125 74.21875 31.78125 74.21875 
z
" id="DejaVuSans-48"/>
        <path d="M 10.6875 12.40625 
L 21 12.40625 
L 21 0 
L 10.6875 0 
z
" id="DejaVuSans-46"/>
        <path d="M 37.796875 64.3125 
L 12.890625 25.390625 
L 37.796875 25.390625 
z
M 35.203125 72.90625 
L 47.609375 72.90625 
L 47.609375 25.390625 
L 58.015625 25.390625 
L 58.015625 17.1875 
L 47.609375 17.1875 
L 47.609375 0 
L 37.796875 0 
L 37.796875 17.1875 
L 4.890625 17.1875 
L 4.890625 26.703125 
z
" id="DejaVuSans-52"/>
       </defs>
       <use xlink:href="#DejaVuSans-48"/>
       <use x="63.623047" xlink:href="#DejaVuSans-46"/>
       <use x="95.410156" xlink:href="#DejaVuSans-52"/>
      </g>
     </g>
    </g>
    <g id="xtick_2">
     <g id="line2d_3">
      <path clip-path="url(#pbfdb7db301)" d="M 130.647273 307.584 
L 130.647273 41.472 
" style="fill:none;stroke:#b0b0b0;stroke-linecap:square;stroke-width:0.8;"/>
     </g>
     <g id="line2d_4">
      <g>
       <use style="stroke:#000000;stroke-width:0.8;" x="130.647273" xlink:href="#m1d142afff4" y="307.584"/>
      </g>
     </g>
     <g id="text_2">
      <!-- 0.6 -->
      <g transform="translate(122.69571 322.182437)scale(0.1 -0.1)">
       <defs>
        <path d="M 33.015625 40.375 
Q 26.375 40.375 22.484375 35.828125 
Q 18.609375 31.296875 18.609375 23.390625 
Q 18.609375 15.53125 22.484375 10.953125 
Q 26.375 6.390625 33.015625 6.390625 
Q 39.65625 6.390625 43.53125 10.953125 
Q 47.40625 15.53125 47.40625 23.390625 
Q 47.40625 31.296875 43.53125 35.828125 
Q 39.65625 40.375 33.015625 40.375 
z
M 52.59375 71.296875 
L 52.59375 62.3125 
Q 48.875 64.0625 45.09375 64.984375 
Q 41.3125 65.921875 37.59375 65.921875 
Q 27.828125 65.921875 22.671875 59.328125 
Q 17.53125 52.734375 16.796875 39.40625 
Q 19.671875 43.65625 24.015625 45.921875 
Q 28.375 48.1875 33.59375 48.1875 
Q 44.578125 48.1875 50.953125 41.515625 
Q 57.328125 34.859375 57.328125 23.390625 
Q 57.328125 12.15625 50.6875 5.359375 
Q 44.046875 -1.421875 33.015625 -1.421875 
Q 20.359375 -1.421875 13.671875 8.265625 
Q 6.984375 17.96875 6.984375 36.375 
Q 6.984375 53.65625 15.1875 63.9375 
Q 23.390625 74.21875 37.203125 74.21875 
Q 40.921875 74.21875 44.703125 73.484375 
Q 48.484375 72.75 52.59375 71.296875 
z
" id="DejaVuSans-54"/>
       </defs>
       <use xlink:href="#DejaVuSans-48"/>
       <use x="63.623047" xlink:href="#DejaVuSans-46"/>
       <use x="95.410156" xlink:href="#DejaVuSans-54"/>
      </g>
     </g>
    </g>
    <g id="xtick_3">
     <g id="line2d_5">
      <path clip-path="url(#pbfdb7db301)" d="M 203.694545 307.584 
L 203.694545 41.472 
" style="fill:none;stroke:#b0b0b0;stroke-linecap:square;stroke-width:0.8;"/>
     </g>
     <g id="line2d_6">
      <g>
       <use style="stroke:#000000;stroke-width:0.8;" x="203.694545" xlink:href="#m1d142afff4" y="307.584"/>
      </g>
     </g>
     <g id="text_3">
      <!-- 0.8 -->
      <g transform="translate(195.742983 322.182437)scale(0.1 -0.1)">
       <defs>
        <path d="M 31.78125 34.625 
Q 24.75 34.625 20.71875 30.859375 
Q 16.703125 27.09375 16.703125 20.515625 
Q 16.703125 13.921875 20.71875 10.15625 
Q 24.75 6.390625 31.78125 6.390625 
Q 38.8125 6.390625 42.859375 10.171875 
Q 46.921875 13.96875 46.921875 20.515625 
Q 46.921875 27.09375 42.890625 30.859375 
Q 38.875 34.625 31.78125 34.625 
z
M 21.921875 38.8125 
Q 15.578125 40.375 12.03125 44.71875 
Q 8.5 49.078125 8.5 55.328125 
Q 8.5 64.0625 14.71875 69.140625 
Q 20.953125 74.21875 31.78125 74.21875 
Q 42.671875 74.21875 48.875 69.140625 
Q 55.078125 64.0625 55.078125 55.328125 
Q 55.078125 49.078125 51.53125 44.71875 
Q 48 40.375 41.703125 38.8125 
Q 48.828125 37.15625 52.796875 32.3125 
Q 56.78125 27.484375 56.78125 20.515625 
Q 56.78125 9.90625 50.3125 4.234375 
Q 43.84375 -1.421875 31.78125 -1.421875 
Q 19.734375 -1.421875 13.25 4.234375 
Q 6.78125 9.90625 6.78125 20.515625 
Q 6.78125 27.484375 10.78125 32.3125 
Q 14.796875 37.15625 21.921875 38.8125 
z
M 18.3125 54.390625 
Q 18.3125 48.734375 21.84375 45.5625 
Q 25.390625 42.390625 31.78125 42.390625 
Q 38.140625 42.390625 41.71875 45.5625 
Q 45.3125 48.734375 45.3125 54.390625 
Q 45.3125 60.0625 41.71875 63.234375 
Q 38.140625 66.40625 31.78125 66.40625 
Q 25.390625 66.40625 21.84375 63.234375 
Q 18.3125 60.0625 18.3125 54.390625 
z
" id="DejaVuSans-56"/>
       </defs>
       <use xlink:href="#DejaVuSans-48"/>
       <use x="63.623047" xlink:href="#DejaVuSans-46"/>
       <use x="95.410156" xlink:href="#DejaVuSans-56"/>
      </g>
     </g>
    </g>
    <g id="xtick_4">
     <g id="line2d_7">
      <path clip-path="url(#pbfdb7db301)" d="M 276.741818 307.584 
L 276.741818 41.472 
" style="fill:none;stroke:#b0b0b0;stroke-linecap:square;stroke-width:0.8;"/>
     </g>
     <g id="line2d_8">
      <g>
       <use style="stroke:#000000;stroke-width:0.8;" x="276.741818" xlink:href="#m1d142afff4" y="307.584"/>
      </g>
     </g>
     <g id="text_4">
      <!-- 1.0 -->
      <g transform="translate(268.790256 322.182437)scale(0.1 -0.1)">
       <defs>
        <path d="M 12.40625 8.296875 
L 28.515625 8.296875 
L 28.515625 63.921875 
L 10.984375 60.40625 
L 10.984375 69.390625 
L 28.421875 72.90625 
L 38.28125 72.90625 
L 38.28125 8.296875 
L 54.390625 8.296875 
L 54.390625 0 
L 12.40625 0 
z
" id="DejaVuSans-49"/>
       </defs>
       <use xlink:href="#DejaVuSans-49"/>
       <use x="63.623047" xlink:href="#DejaVuSans-46"/>
       <use x="95.410156" xlink:href="#DejaVuSans-48"/>
      </g>
     </g>
    </g>
    <g id="xtick_5">
     <g id="line2d_9">
      <path clip-path="url(#pbfdb7db301)" d="M 349.789091 307.584 
L 349.789091 41.472 
" style="fill:none;stroke:#b0b0b0;stroke-linecap:square;stroke-width:0.8;"/>
     </g>
     <g id="line2d_10">
      <g>
       <use style="stroke:#000000;stroke-width:0.8;" x="349.789091" xlink:href="#m1d142afff4" y="307.584"/>
      </g>
     </g>
     <g id="text_5">
      <!-- 1.2 -->
      <g transform="translate(341.837528 322.182437)scale(0.1 -0.1)">
       <defs>
        <path d="M 19.1875 8.296875 
L 53.609375 8.296875 
L 53.609375 0 
L 7.328125 0 
L 7.328125 8.296875 
Q 12.9375 14.109375 22.625 23.890625 
Q 32.328125 33.6875 34.8125 36.53125 
Q 39.546875 41.84375 41.421875 45.53125 
Q 43.3125 49.21875 43.3125 52.78125 
Q 43.3125 58.59375 39.234375 62.25 
Q 35.15625 65.921875 28.609375 65.921875 
Q 23.96875 65.921875 18.8125 64.3125 
Q 13.671875 62.703125 7.8125 59.421875 
L 7.8125 69.390625 
Q 13.765625 71.78125 18.9375 73 
Q 24.125 74.21875 28.421875 74.21875 
Q 39.75 74.21875 46.484375 68.546875 
Q 53.21875 62.890625 53.21875 53.421875 
Q 53.21875 48.921875 51.53125 44.890625 
Q 49.859375 40.875 45.40625 35.40625 
Q 44.1875 33.984375 37.640625 27.21875 
Q 31.109375 20.453125 19.1875 8.296875 
z
" id="DejaVuSans-50"/>
       </defs>
       <use xlink:href="#DejaVuSans-49"/>
       <use x="63.623047" xlink:href="#DejaVuSans-46"/>
       <use x="95.410156" xlink:href="#DejaVuSans-50"/>
      </g>
     </g>
    </g>
    <g id="text_6">
     <!-- wavelength (μm) -->
     <g transform="translate(193.49125 335.860562)scale(0.1 -0.1)">
      <defs>
       <path d="M 4.203125 54.6875 
L 13.1875 54.6875 
L 24.421875 12.015625 
L 35.59375 54.6875 
L 46.1875 54.6875 
L 57.421875 12.015625 
L 68.609375 54.6875 
L 77.59375 54.6875 
L 63.28125 0 
L 52.6875 0 
L 40.921875 44.828125 
L 29.109375 0 
L 18.5 0 
z
" id="DejaVuSans-119"/>
       <path d="M 34.28125 27.484375 
Q 23.390625 27.484375 19.1875 25 
Q 14.984375 22.515625 14.984375 16.5 
Q 14.984375 11.71875 18.140625 8.90625 
Q 21.296875 6.109375 26.703125 6.109375 
Q 34.1875 6.109375 38.703125 11.40625 
Q 43.21875 16.703125 43.21875 25.484375 
L 43.21875 27.484375 
z
M 52.203125 31.203125 
L 52.203125 0 
L 43.21875 0 
L 43.21875 8.296875 
Q 40.140625 3.328125 35.546875 0.953125 
Q 30.953125 -1.421875 24.3125 -1.421875 
Q 15.921875 -1.421875 10.953125 3.296875 
Q 6 8.015625 6 15.921875 
Q 6 25.140625 12.171875 29.828125 
Q 18.359375 34.515625 30.609375 34.515625 
L 43.21875 34.515625 
L 43.21875 35.40625 
Q 43.21875 41.609375 39.140625 45 
Q 35.0625 48.390625 27.6875 48.390625 
Q 23 48.390625 18.546875 47.265625 
Q 14.109375 46.140625 10.015625 43.890625 
L 10.015625 52.203125 
Q 14.9375 54.109375 19.578125 55.046875 
Q 24.21875 56 28.609375 56 
Q 40.484375 56 46.34375 49.84375 
Q 52.203125 43.703125 52.203125 31.203125 
z
" id="DejaVuSans-97"/>
       <path d="M 2.984375 54.6875 
L 12.5 54.6875 
L 29.59375 8.796875 
L 46.6875 54.6875 
L 56.203125 54.6875 
L 35.6875 0 
L 23.484375 0 
z
" id="DejaVuSans-118"/>
       <path d="M 56.203125 29.59375 
L 56.203125 25.203125 
L 14.890625 25.203125 
Q 15.484375 15.921875 20.484375 11.0625 
Q 25.484375 6.203125 34.421875 6.203125 
Q 39.59375 6.203125 44.453125 7.46875 
Q 49.3125 8.734375 54.109375 11.28125 
L 54.109375 2.78125 
Q 49.265625 0.734375 44.1875 -0.34375 
Q 39.109375 -1.421875 33.890625 -1.421875 
Q 20.796875 -1.421875 13.15625 6.1875 
Q 5.515625 13.8125 5.515625 26.8125 
Q 5.515625 40.234375 12.765625 48.109375 
Q 20.015625 56 32.328125 56 
Q 43.359375 56 49.78125 48.890625 
Q 56.203125 41.796875 56.203125 29.59375 
z
M 47.21875 32.234375 
Q 47.125 39.59375 43.09375 43.984375 
Q 39.0625 48.390625 32.421875 48.390625 
Q 24.90625 48.390625 20.390625 44.140625 
Q 15.875 39.890625 15.1875 32.171875 
z
" id="DejaVuSans-101"/>
       <path d="M 9.421875 75.984375 
L 18.40625 75.984375 
L 18.40625 0 
L 9.421875 0 
z
" id="DejaVuSans-108"/>
       <path d="M 54.890625 33.015625 
L 54.890625 0 
L 45.90625 0 
L 45.90625 32.71875 
Q 45.90625 40.484375 42.875 44.328125 
Q 39.84375 48.1875 33.796875 48.1875 
Q 26.515625 48.1875 22.3125 43.546875 
Q 18.109375 38.921875 18.109375 30.90625 
L 18.109375 0 
L 9.078125 0 
L 9.078125 54.6875 
L 18.109375 54.6875 
L 18.109375 46.1875 
Q 21.34375 51.125 25.703125 53.5625 
Q 30.078125 56 35.796875 56 
Q 45.21875 56 50.046875 50.171875 
Q 54.890625 44.34375 54.890625 33.015625 
z
" id="DejaVuSans-110"/>
       <path d="M 45.40625 27.984375 
Q 45.40625 37.75 41.375 43.109375 
Q 37.359375 48.484375 30.078125 48.484375 
Q 22.859375 48.484375 18.828125 43.109375 
Q 14.796875 37.75 14.796875 27.984375 
Q 14.796875 18.265625 18.828125 12.890625 
Q 22.859375 7.515625 30.078125 7.515625 
Q 37.359375 7.515625 41.375 12.890625 
Q 45.40625 18.265625 45.40625 27.984375 
z
M 54.390625 6.78125 
Q 54.390625 -7.171875 48.1875 -13.984375 
Q 42 -20.796875 29.203125 -20.796875 
Q 24.46875 -20.796875 20.265625 -20.09375 
Q 16.0625 -19.390625 12.109375 -17.921875 
L 12.109375 -9.1875 
Q 16.0625 -11.328125 19.921875 -12.34375 
Q 23.78125 -13.375 27.78125 -13.375 
Q 36.625 -13.375 41.015625 -8.765625 
Q 45.40625 -4.15625 45.40625 5.171875 
L 45.40625 9.625 
Q 42.625 4.78125 38.28125 2.390625 
Q 33.9375 0 27.875 0 
Q 17.828125 0 11.671875 7.65625 
Q 5.515625 15.328125 5.515625 27.984375 
Q 5.515625 40.671875 11.671875 48.328125 
Q 17.828125 56 27.875 56 
Q 33.9375 56 38.28125 53.609375 
Q 42.625 51.21875 45.40625 46.390625 
L 45.40625 54.6875 
L 54.390625 54.6875 
z
" id="DejaVuSans-103"/>
       <path d="M 18.3125 70.21875 
L 18.3125 54.6875 
L 36.8125 54.6875 
L 36.8125 47.703125 
L 18.3125 47.703125 
L 18.3125 18.015625 
Q 18.3125 11.328125 20.140625 9.421875 
Q 21.96875 7.515625 27.59375 7.515625 
L 36.8125 7.515625 
L 36.8125 0 
L 27.59375 0 
Q 17.1875 0 13.234375 3.875 
Q 9.28125 7.765625 9.28125 18.015625 
L 9.28125 47.703125 
L 2.6875 47.703125 
L 2.6875 54.6875 
L 9.28125 54.6875 
L 9.28125 70.21875 
z
" id="DejaVuSans-116"/>
       <path d="M 54.890625 33.015625 
L 54.890625 0 
L 45.90625 0 
L 45.90625 32.71875 
Q 45.90625 40.484375 42.875 44.328125 
Q 39.84375 48.1875 33.796875 48.1875 
Q 26.515625 48.1875 22.3125 43.546875 
Q 18.109375 38.921875 18.109375 30.90625 
L 18.109375 0 
L 9.078125 0 
L 9.078125 75.984375 
L 18.109375 75.984375 
L 18.109375 46.1875 
Q 21.34375 51.125 25.703125 53.5625 
Q 30.078125 56 35.796875 56 
Q 45.21875 56 50.046875 50.171875 
Q 54.890625 44.34375 54.890625 33.015625 
z
" id="DejaVuSans-104"/>
       <path id="DejaVuSans-32"/>
       <path d="M 31 75.875 
Q 24.46875 64.65625 21.28125 53.65625 
Q 18.109375 42.671875 18.109375 31.390625 
Q 18.109375 20.125 21.3125 9.0625 
Q 24.515625 -2 31 -13.1875 
L 23.1875 -13.1875 
Q 15.875 -1.703125 12.234375 9.375 
Q 8.59375 20.453125 8.59375 31.390625 
Q 8.59375 42.28125 12.203125 53.3125 
Q 15.828125 64.359375 23.1875 75.875 
z
" id="DejaVuSans-40"/>
       <path d="M 8.5 -20.796875 
L 8.5 54.6875 
L 17.484375 54.6875 
L 17.484375 20.703125 
Q 17.484375 13.625 20.84375 10 
Q 24.21875 6.390625 30.8125 6.390625 
Q 38.03125 6.390625 41.671875 10.484375 
Q 45.3125 14.59375 45.3125 22.796875 
L 45.3125 54.6875 
L 54.296875 54.6875 
L 54.296875 12.59375 
Q 54.296875 9.671875 55.140625 8.28125 
Q 56 6.890625 57.8125 6.890625 
Q 58.25 6.890625 59.03125 7.15625 
Q 59.8125 7.421875 61.1875 8.015625 
L 61.1875 0.78125 
Q 59.1875 -0.34375 57.390625 -0.875 
Q 55.609375 -1.421875 53.90625 -1.421875 
Q 50.53125 -1.421875 48.53125 0.484375 
Q 46.53125 2.390625 45.796875 6.296875 
Q 43.359375 2.4375 39.8125 0.5 
Q 36.28125 -1.421875 31.5 -1.421875 
Q 26.515625 -1.421875 23.015625 0.484375 
Q 19.53125 2.390625 17.484375 6.203125 
L 17.484375 -20.796875 
z
" id="DejaVuSans-956"/>
       <path d="M 52 44.1875 
Q 55.375 50.25 60.0625 53.125 
Q 64.75 56 71.09375 56 
Q 79.640625 56 84.28125 50.015625 
Q 88.921875 44.046875 88.921875 33.015625 
L 88.921875 0 
L 79.890625 0 
L 79.890625 32.71875 
Q 79.890625 40.578125 77.09375 44.375 
Q 74.3125 48.1875 68.609375 48.1875 
Q 61.625 48.1875 57.5625 43.546875 
Q 53.515625 38.921875 53.515625 30.90625 
L 53.515625 0 
L 44.484375 0 
L 44.484375 32.71875 
Q 44.484375 40.625 41.703125 44.40625 
Q 38.921875 48.1875 33.109375 48.1875 
Q 26.21875 48.1875 22.15625 43.53125 
Q 18.109375 38.875 18.109375 30.90625 
L 18.109375 0 
L 9.078125 0 
L 9.078125 54.6875 
L 18.109375 54.6875 
L 18.109375 46.1875 
Q 21.1875 51.21875 25.484375 53.609375 
Q 29.78125 56 35.6875 56 
Q 41.65625 56 45.828125 52.96875 
Q 50 49.953125 52 44.1875 
z
" id="DejaVuSans-109"/>
       <path d="M 8.015625 75.875 
L 15.828125 75.875 
Q 23.140625 64.359375 26.78125 53.3125 
Q 30.421875 42.28125 30.421875 31.390625 
Q 30.421875 20.453125 26.78125 9.375 
Q 23.140625 -1.703125 15.828125 -13.1875 
L 8.015625 -13.1875 
Q 14.5 -2 17.703125 9.0625 
Q 20.90625 20.125 20.90625 31.390625 
Q 20.90625 42.671875 17.703125 53.65625 
Q 14.5 64.65625 8.015625 75.875 
z
" id="DejaVuSans-41"/>
      </defs>
      <use xlink:href="#DejaVuSans-119"/>
      <use x="81.787109" xlink:href="#DejaVuSans-97"/>
      <use x="143.066406" xlink:href="#DejaVuSans-118"/>
      <use x="202.246094" xlink:href="#DejaVuSans-101"/>
      <use x="263.769531" xlink:href="#DejaVuSans-108"/>
      <use x="291.552734" xlink:href="#DejaVuSans-101"/>
      <use x="353.076172" xlink:href="#DejaVuSans-110"/>
      <use x="416.455078" xlink:href="#DejaVuSans-103"/>
      <use x="479.931641" xlink:href="#DejaVuSans-116"/>
      <use x="519.140625" xlink:href="#DejaVuSans-104"/>
      <use x="582.519531" xlink:href="#DejaVuSans-32"/>
      <use x="614.306641" xlink:href="#DejaVuSans-40"/>
      <use x="653.320312" xlink:href="#DejaVuSans-956"/>
      <use x="716.943359" xlink:href="#DejaVuSans-109"/>
      <use x="814.355469" xlink:href="#DejaVuSans-41"/>
     </g>
    </g>
   </g>
   <g id="matplotlib.axis_2">
    <g id="ytick_1">
     <g id="line2d_11">
      <path clip-path="url(#pbfdb7db301)" d="M 57.6 295.962293 
L 414.72 295.962293 
" style="fill:none;stroke:#b0b0b0;stroke-linecap:square;stroke-width:0.8;"/>
     </g>
     <g id="line2d_12">
      <defs>
       <path d="M 0 0 
L -3.5 0 
" id="m7e20d734f1" style="stroke:#000000;stroke-width:0.8;"/>
      </defs>
      <g>
       <use style="stroke:#000000;stroke-width:0.8;" x="57.6" xlink:href="#m7e20d734f1" y="295.962293"/>
      </g>
     </g>
     <g id="text_7">
      <!-- 0.0 -->
      <g transform="translate(34.696875 299.761512)scale(0.1 -0.1)">
       <use xlink:href="#DejaVuSans-48"/>
       <use x="63.623047" xlink:href="#DejaVuSans-46"/>
       <use x="95.410156" xlink:href="#DejaVuSans-48"/>
      </g>
     </g>
    </g>
    <g id="ytick_2">
     <g id="line2d_13">
      <path clip-path="url(#pbfdb7db301)" d="M 57.6 246.935813 
L 414.72 246.935813 
" style="fill:none;stroke:#b0b0b0;stroke-linecap:square;stroke-width:0.8;"/>
     </g>
     <g id="line2d_14">
      <g>
       <use style="stroke:#000000;stroke-width:0.8;" x="57.6" xlink:href="#m7e20d734f1" y="246.935813"/>
      </g>
     </g>
     <g id="text_8">
      <!-- 0.2 -->
      <g transform="translate(34.696875 250.735032)scale(0.1 -0.1)">
       <use xlink:href="#DejaVuSans-48"/>
       <use x="63.623047" xlink:href="#DejaVuSans-46"/>
       <use x="95.410156" xlink:href="#DejaVuSans-50"/>
      </g>
     </g>
    </g>
    <g id="ytick_3">
     <g id="line2d_15">
      <path clip-path="url(#pbfdb7db301)" d="M 57.6 197.909332 
L 414.72 197.909332 
" style="fill:none;stroke:#b0b0b0;stroke-linecap:square;stroke-width:0.8;"/>
     </g>
     <g id="line2d_16">
      <g>
       <use style="stroke:#000000;stroke-width:0.8;" x="57.6" xlink:href="#m7e20d734f1" y="197.909332"/>
      </g>
     </g>
     <g id="text_9">
      <!-- 0.4 -->
      <g transform="translate(34.696875 201.708551)scale(0.1 -0.1)">
       <use xlink:href="#DejaVuSans-48"/>
       <use x="63.623047" xlink:href="#DejaVuSans-46"/>
       <use x="95.410156" xlink:href="#DejaVuSans-52"/>
      </g>
     </g>
    </g>
    <g id="ytick_4">
     <g id="line2d_17">
      <path clip-path="url(#pbfdb7db301)" d="M 57.6 148.882852 
L 414.72 148.882852 
" style="fill:none;stroke:#b0b0b0;stroke-linecap:square;stroke-width:0.8;"/>
     </g>
     <g id="line2d_18">
      <g>
       <use style="stroke:#000000;stroke-width:0.8;" x="57.6" xlink:href="#m7e20d734f1" y="148.882852"/>
      </g>
     </g>
     <g id="text_10">
      <!-- 0.6 -->
      <g transform="translate(34.696875 152.682071)scale(0.1 -0.1)">
       <use xlink:href="#DejaVuSans-48"/>
       <use x="63.623047" xlink:href="#DejaVuSans-46"/>
       <use x="95.410156" xlink:href="#DejaVuSans-54"/>
      </g>
     </g>
    </g>
    <g id="ytick_5">
     <g id="line2d_19">
      <path clip-path="url(#pbfdb7db301)" d="M 57.6 99.856371 
L 414.72 99.856371 
" style="fill:none;stroke:#b0b0b0;stroke-linecap:square;stroke-width:0.8;"/>
     </g>
     <g id="line2d_20">
      <g>
       <use style="stroke:#000000;stroke-width:0.8;" x="57.6" xlink:href="#m7e20d734f1" y="99.856371"/>
      </g>
     </g>
     <g id="text_11">
      <!-- 0.8 -->
      <g transform="translate(34.696875 103.65559)scale(0.1 -0.1)">
       <use xlink:href="#DejaVuSans-48"/>
       <use x="63.623047" xlink:href="#DejaVuSans-46"/>
       <use x="95.410156" xlink:href="#DejaVuSans-56"/>
      </g>
     </g>
    </g>
    <g id="ytick_6">
     <g id="line2d_21">
      <path clip-path="url(#pbfdb7db301)" d="M 57.6 50.829891 
L 414.72 50.829891 
" style="fill:none;stroke:#b0b0b0;stroke-linecap:square;stroke-width:0.8;"/>
     </g>
     <g id="line2d_22">
      <g>
       <use style="stroke:#000000;stroke-width:0.8;" x="57.6" xlink:href="#m7e20d734f1" y="50.829891"/>
      </g>
     </g>
     <g id="text_12">
      <!-- 1.0 -->
      <g transform="translate(34.696875 54.62911)scale(0.1 -0.1)">
       <use xlink:href="#DejaVuSans-49"/>
       <use x="63.623047" xlink:href="#DejaVuSans-46"/>
       <use x="95.410156" xlink:href="#DejaVuSans-48"/>
      </g>
     </g>
    </g>
   </g>
   <g id="line2d_23">
    <path clip-path="url(#pbfdb7db301)" d="M 398.487273 294.897978 
L 342.213818 294.341175 
L 285.672952 293.542429 
L 221.120093 292.633939 
L 199.070386 292.564598 
L 182.960306 292.731158 
L 169.930473 293.081139 
L 158.094212 293.634532 
L 147.294705 294.370783 
L 133.266054 295.388047 
L 129.279346 295.460681 
L 126.382133 295.338748 
L 123.560995 295.020203 
L 120.812975 294.492216 
L 117.257858 293.537131 
L 112.145997 292.074666 
L 108.876904 291.410581 
L 105.712633 291.039989 
L 101.897167 290.843183 
L 96.80064 290.812954 
L 91.969853 290.993743 
L 79.459323 291.665888 
L 76.037512 291.532177 
L 73.832727 291.322159 
L 73.832727 291.322159 
" style="fill:none;stroke:#0000ff;stroke-linecap:square;stroke-width:1.5;"/>
   </g>
   <g id="line2d_24">
    <path clip-path="url(#pbfdb7db301)" d="M 398.487273 53.92543 
L 342.213818 53.592557 
L 310.309495 53.602309 
L 279.982191 53.835484 
L 256.378699 54.222753 
L 231.338398 54.865738 
L 213.40384 55.529764 
L 197.373837 56.342463 
L 186.036281 57.114198 
L 177.01061 57.932855 
L 169.930473 58.787722 
L 164.532561 59.635439 
L 159.355536 60.686104 
L 155.609691 61.652904 
L 151.975385 62.822572 
L 148.447708 64.256282 
L 146.152868 65.398074 
L 143.902054 66.723246 
L 141.69401 68.26793 
L 139.527529 70.074772 
L 137.401449 72.193254 
L 135.31465 74.679315 
L 133.266054 77.593805 
L 131.25462 80.998979 
L 129.279346 84.951931 
L 127.339267 89.494015 
L 125.43345 94.636071 
L 123.560995 100.340807 
L 120.812975 109.710263 
L 114.669777 131.567345 
L 112.980261 136.745239 
L 111.318613 141.200404 
L 109.684149 144.951854 
L 108.076209 148.090058 
L 106.49415 150.738201 
L 104.168241 154.050449 
L 101.897167 156.825317 
L 99.679011 159.201474 
L 97.511946 161.196551 
L 95.394225 162.77412 
L 94.008998 163.575138 
L 92.644486 164.170703 
L 91.300226 164.565633 
L 89.975771 164.772537 
L 88.670686 164.810409 
L 86.74846 164.603274 
L 84.867497 164.161962 
L 81.820713 163.157567 
L 77.730809 161.778416 
L 75.48072 161.217482 
L 73.832727 160.945316 
L 73.832727 160.945316 
" style="fill:none;stroke:#ff0000;stroke-linecap:square;stroke-width:1.5;"/>
   </g>
   <g id="line2d_25">
    <path clip-path="url(#pbfdb7db301)" d="M 398.487273 293.93107 
L 307.053952 295.268426 
L 274.461941 295.482846 
L 251.538373 295.4192 
L 231.338398 295.152854 
L 215.29662 294.713454 
L 202.524619 294.144513 
L 192.402213 293.495159 
L 182.960306 292.656106 
L 175.563716 291.764527 
L 169.930473 290.885617 
L 164.532561 289.817146 
L 160.629829 288.859748 
L 156.845662 287.735514 
L 153.174736 286.404625 
L 149.612044 284.814629 
L 147.294705 283.577419 
L 145.022037 282.169448 
L 142.792762 280.560721 
L 140.605648 278.716087 
L 138.45951 276.594957 
L 136.353208 274.151556 
L 134.285643 271.336038 
L 132.255755 268.097018 
L 130.262524 264.386352 
L 128.304966 260.167045 
L 126.382133 255.424693 
L 124.493107 250.181808 
L 121.721033 241.557726 
L 114.669777 218.423115 
L 112.980261 213.720189 
L 111.318613 209.675281 
L 109.684149 206.25591 
L 108.076209 203.371074 
L 106.49415 200.906499 
L 104.168241 197.768573 
L 101.897167 195.085978 
L 99.679011 192.749595 
L 97.511946 190.753809 
L 95.394225 189.136668 
L 93.324182 187.933993 
L 91.969853 187.368107 
L 90.63555 186.985035 
L 89.320834 186.77282 
L 87.38455 186.736861 
L 85.489982 186.974983 
L 83.026484 187.582318 
L 78.879171 188.962356 
L 74.927684 190.203052 
L 73.832727 190.487003 
L 73.832727 190.487003 
" style="fill:none;stroke:#008000;stroke-linecap:square;stroke-width:1.5;"/>
    <defs>
     <path d="M 0 3 
C 0.795609 3 1.55874 2.683901 2.12132 2.12132 
C 2.683901 1.55874 3 0.795609 3 0 
C 3 -0.795609 2.683901 -1.55874 2.12132 -2.12132 
C 1.55874 -2.683901 0.795609 -3 0 -3 
C -0.795609 -3 -1.55874 -2.683901 -2.12132 -2.12132 
C -2.683901 -1.55874 -3 -0.795609 -3 0 
C -3 0.795609 -2.683901 1.55874 -2.12132 2.12132 
C -1.55874 2.683901 -0.795609 3 0 3 
z
" id="mc86e5ad549" style="stroke:#008000;"/>
    </defs>
    <g clip-path="url(#pbfdb7db301)">
     <use style="fill:#008000;stroke:#008000;" x="398.487273" xlink:href="#mc86e5ad549" y="293.93107"/>
     <use style="fill:#008000;stroke:#008000;" x="393.641682" xlink:href="#mc86e5ad549" y="294.007383"/>
     <use style="fill:#008000;stroke:#008000;" x="388.891572" xlink:href="#mc86e5ad549" y="294.083946"/>
     <use style="fill:#008000;stroke:#008000;" x="384.234146" xlink:href="#mc86e5ad549" y="294.160218"/>
     <use style="fill:#008000;stroke:#008000;" x="379.666719" xlink:href="#mc86e5ad549" y="294.235449"/>
     <use style="fill:#008000;stroke:#008000;" x="375.186707" xlink:href="#mc86e5ad549" y="294.308925"/>
     <use style="fill:#008000;stroke:#008000;" x="370.791624" xlink:href="#mc86e5ad549" y="294.380159"/>
     <use style="fill:#008000;stroke:#008000;" x="366.479078" xlink:href="#mc86e5ad549" y="294.448967"/>
     <use style="fill:#008000;stroke:#008000;" x="362.246765" xlink:href="#mc86e5ad549" y="294.515433"/>
     <use style="fill:#008000;stroke:#008000;" x="358.092468" xlink:href="#mc86e5ad549" y="294.579802"/>
     <use style="fill:#008000;stroke:#008000;" x="354.014047" xlink:href="#mc86e5ad549" y="294.642361"/>
     <use style="fill:#008000;stroke:#008000;" x="350.009445" xlink:href="#mc86e5ad549" y="294.703332"/>
     <use style="fill:#008000;stroke:#008000;" x="346.076673" xlink:href="#mc86e5ad549" y="294.762811"/>
     <use style="fill:#008000;stroke:#008000;" x="342.213818" xlink:href="#mc86e5ad549" y="294.820746"/>
     <use style="fill:#008000;stroke:#008000;" x="338.419031" xlink:href="#mc86e5ad549" y="294.876953"/>
     <use style="fill:#008000;stroke:#008000;" x="334.690528" xlink:href="#mc86e5ad549" y="294.931152"/>
     <use style="fill:#008000;stroke:#008000;" x="331.026588" xlink:href="#mc86e5ad549" y="294.983024"/>
     <use style="fill:#008000;stroke:#008000;" x="327.425548" xlink:href="#mc86e5ad549" y="295.032266"/>
     <use style="fill:#008000;stroke:#008000;" x="323.885803" xlink:href="#mc86e5ad549" y="295.078655"/>
     <use style="fill:#008000;stroke:#008000;" x="320.4058" xlink:href="#mc86e5ad549" y="295.122087"/>
     <use style="fill:#008000;stroke:#008000;" x="316.98404" xlink:href="#mc86e5ad549" y="295.162595"/>
     <use style="fill:#008000;stroke:#008000;" x="313.619072" xlink:href="#mc86e5ad549" y="295.200333"/>
     <use style="fill:#008000;stroke:#008000;" x="310.309495" xlink:href="#mc86e5ad549" y="295.23553"/>
     <use style="fill:#008000;stroke:#008000;" x="307.053952" xlink:href="#mc86e5ad549" y="295.268426"/>
     <use style="fill:#008000;stroke:#008000;" x="303.85113" xlink:href="#mc86e5ad549" y="295.299215"/>
     <use style="fill:#008000;stroke:#008000;" x="300.699759" xlink:href="#mc86e5ad549" y="295.327994"/>
     <use style="fill:#008000;stroke:#008000;" x="297.598609" xlink:href="#mc86e5ad549" y="295.35476"/>
     <use style="fill:#008000;stroke:#008000;" x="294.546489" xlink:href="#mc86e5ad549" y="295.379422"/>
     <use style="fill:#008000;stroke:#008000;" x="291.542246" xlink:href="#mc86e5ad549" y="295.40184"/>
     <use style="fill:#008000;stroke:#008000;" x="288.584761" xlink:href="#mc86e5ad549" y="295.421865"/>
     <use style="fill:#008000;stroke:#008000;" x="285.672952" xlink:href="#mc86e5ad549" y="295.439375"/>
     <use style="fill:#008000;stroke:#008000;" x="282.805768" xlink:href="#mc86e5ad549" y="295.45428"/>
     <use style="fill:#008000;stroke:#008000;" x="279.982191" xlink:href="#mc86e5ad549" y="295.466522"/>
     <use style="fill:#008000;stroke:#008000;" x="277.201235" xlink:href="#mc86e5ad549" y="295.476058"/>
     <use style="fill:#008000;stroke:#008000;" x="274.461941" xlink:href="#mc86e5ad549" y="295.482846"/>
     <use style="fill:#008000;stroke:#008000;" x="271.76338" xlink:href="#mc86e5ad549" y="295.486841"/>
     <use style="fill:#008000;stroke:#008000;" x="269.104649" xlink:href="#mc86e5ad549" y="295.488"/>
     <use style="fill:#008000;stroke:#008000;" x="266.484875" xlink:href="#mc86e5ad549" y="295.4863"/>
     <use style="fill:#008000;stroke:#008000;" x="263.903207" xlink:href="#mc86e5ad549" y="295.481751"/>
     <use style="fill:#008000;stroke:#008000;" x="261.358819" xlink:href="#mc86e5ad549" y="295.474406"/>
     <use style="fill:#008000;stroke:#008000;" x="258.850909" xlink:href="#mc86e5ad549" y="295.464361"/>
     <use style="fill:#008000;stroke:#008000;" x="256.378699" xlink:href="#mc86e5ad549" y="295.451733"/>
     <use style="fill:#008000;stroke:#008000;" x="253.941433" xlink:href="#mc86e5ad549" y="295.436646"/>
     <use style="fill:#008000;stroke:#008000;" x="251.538373" xlink:href="#mc86e5ad549" y="295.4192"/>
     <use style="fill:#008000;stroke:#008000;" x="249.168806" xlink:href="#mc86e5ad549" y="295.399459"/>
     <use style="fill:#008000;stroke:#008000;" x="246.832035" xlink:href="#mc86e5ad549" y="295.377436"/>
     <use style="fill:#008000;stroke:#008000;" x="244.527385" xlink:href="#mc86e5ad549" y="295.353097"/>
     <use style="fill:#008000;stroke:#008000;" x="242.254198" xlink:href="#mc86e5ad549" y="295.326368"/>
     <use style="fill:#008000;stroke:#008000;" x="240.011834" xlink:href="#mc86e5ad549" y="295.297145"/>
     <use style="fill:#008000;stroke:#008000;" x="237.799669" xlink:href="#mc86e5ad549" y="295.265307"/>
     <use style="fill:#008000;stroke:#008000;" x="235.617099" xlink:href="#mc86e5ad549" y="295.230727"/>
     <use style="fill:#008000;stroke:#008000;" x="233.463534" xlink:href="#mc86e5ad549" y="295.193281"/>
     <use style="fill:#008000;stroke:#008000;" x="231.338398" xlink:href="#mc86e5ad549" y="295.152854"/>
     <use style="fill:#008000;stroke:#008000;" x="229.241133" xlink:href="#mc86e5ad549" y="295.109348"/>
     <use style="fill:#008000;stroke:#008000;" x="227.171193" xlink:href="#mc86e5ad549" y="295.06268"/>
     <use style="fill:#008000;stroke:#008000;" x="225.128049" xlink:href="#mc86e5ad549" y="295.012788"/>
     <use style="fill:#008000;stroke:#008000;" x="223.111184" xlink:href="#mc86e5ad549" y="294.959622"/>
     <use style="fill:#008000;stroke:#008000;" x="221.120093" xlink:href="#mc86e5ad549" y="294.903145"/>
     <use style="fill:#008000;stroke:#008000;" x="219.154286" xlink:href="#mc86e5ad549" y="294.843319"/>
     <use style="fill:#008000;stroke:#008000;" x="217.213284" xlink:href="#mc86e5ad549" y="294.780105"/>
     <use style="fill:#008000;stroke:#008000;" x="215.29662" xlink:href="#mc86e5ad549" y="294.713454"/>
     <use style="fill:#008000;stroke:#008000;" x="213.40384" xlink:href="#mc86e5ad549" y="294.643306"/>
     <use style="fill:#008000;stroke:#008000;" x="211.5345" xlink:href="#mc86e5ad549" y="294.56959"/>
     <use style="fill:#008000;stroke:#008000;" x="209.688168" xlink:href="#mc86e5ad549" y="294.492227"/>
     <use style="fill:#008000;stroke:#008000;" x="207.86442" xlink:href="#mc86e5ad549" y="294.411132"/>
     <use style="fill:#008000;stroke:#008000;" x="206.062846" xlink:href="#mc86e5ad549" y="294.326213"/>
     <use style="fill:#008000;stroke:#008000;" x="204.283043" xlink:href="#mc86e5ad549" y="294.237375"/>
     <use style="fill:#008000;stroke:#008000;" x="202.524619" xlink:href="#mc86e5ad549" y="294.144513"/>
     <use style="fill:#008000;stroke:#008000;" x="200.787191" xlink:href="#mc86e5ad549" y="294.047511"/>
     <use style="fill:#008000;stroke:#008000;" x="199.070386" xlink:href="#mc86e5ad549" y="293.946236"/>
     <use style="fill:#008000;stroke:#008000;" x="197.373837" xlink:href="#mc86e5ad549" y="293.84054"/>
     <use style="fill:#008000;stroke:#008000;" x="195.69719" xlink:href="#mc86e5ad549" y="293.730256"/>
     <use style="fill:#008000;stroke:#008000;" x="194.040095" xlink:href="#mc86e5ad549" y="293.615197"/>
     <use style="fill:#008000;stroke:#008000;" x="192.402213" xlink:href="#mc86e5ad549" y="293.495159"/>
     <use style="fill:#008000;stroke:#008000;" x="190.783212" xlink:href="#mc86e5ad549" y="293.369915"/>
     <use style="fill:#008000;stroke:#008000;" x="189.182766" xlink:href="#mc86e5ad549" y="293.239219"/>
     <use style="fill:#008000;stroke:#008000;" x="187.600559" xlink:href="#mc86e5ad549" y="293.102799"/>
     <use style="fill:#008000;stroke:#008000;" x="186.036281" xlink:href="#mc86e5ad549" y="292.960358"/>
     <use style="fill:#008000;stroke:#008000;" x="184.489629" xlink:href="#mc86e5ad549" y="292.811576"/>
     <use style="fill:#008000;stroke:#008000;" x="182.960306" xlink:href="#mc86e5ad549" y="292.656106"/>
     <use style="fill:#008000;stroke:#008000;" x="181.448022" xlink:href="#mc86e5ad549" y="292.493574"/>
     <use style="fill:#008000;stroke:#008000;" x="179.952496" xlink:href="#mc86e5ad549" y="292.323586"/>
     <use style="fill:#008000;stroke:#008000;" x="178.473449" xlink:href="#mc86e5ad549" y="292.14572"/>
     <use style="fill:#008000;stroke:#008000;" x="177.01061" xlink:href="#mc86e5ad549" y="291.959526"/>
     <use style="fill:#008000;stroke:#008000;" x="175.563716" xlink:href="#mc86e5ad549" y="291.764527"/>
     <use style="fill:#008000;stroke:#008000;" x="174.132506" xlink:href="#mc86e5ad549" y="291.560208"/>
     <use style="fill:#008000;stroke:#008000;" x="172.716726" xlink:href="#mc86e5ad549" y="291.346018"/>
     <use style="fill:#008000;stroke:#008000;" x="171.31613" xlink:href="#mc86e5ad549" y="291.121367"/>
     <use style="fill:#008000;stroke:#008000;" x="169.930473" xlink:href="#mc86e5ad549" y="290.885617"/>
     <use style="fill:#008000;stroke:#008000;" x="168.559518" xlink:href="#mc86e5ad549" y="290.638085"/>
     <use style="fill:#008000;stroke:#008000;" x="167.203032" xlink:href="#mc86e5ad549" y="290.378036"/>
     <use style="fill:#008000;stroke:#008000;" x="165.860787" xlink:href="#mc86e5ad549" y="290.104677"/>
     <use style="fill:#008000;stroke:#008000;" x="164.532561" xlink:href="#mc86e5ad549" y="289.817146"/>
     <use style="fill:#008000;stroke:#008000;" x="163.218135" xlink:href="#mc86e5ad549" y="289.514511"/>
     <use style="fill:#008000;stroke:#008000;" x="161.917294" xlink:href="#mc86e5ad549" y="289.195749"/>
     <use style="fill:#008000;stroke:#008000;" x="160.629829" xlink:href="#mc86e5ad549" y="288.859748"/>
     <use style="fill:#008000;stroke:#008000;" x="159.355536" xlink:href="#mc86e5ad549" y="288.505286"/>
     <use style="fill:#008000;stroke:#008000;" x="158.094212" xlink:href="#mc86e5ad549" y="288.131029"/>
     <use style="fill:#008000;stroke:#008000;" x="156.845662" xlink:href="#mc86e5ad549" y="287.735514"/>
     <use style="fill:#008000;stroke:#008000;" x="155.609691" xlink:href="#mc86e5ad549" y="287.317141"/>
     <use style="fill:#008000;stroke:#008000;" x="154.386111" xlink:href="#mc86e5ad549" y="286.874153"/>
     <use style="fill:#008000;stroke:#008000;" x="153.174736" xlink:href="#mc86e5ad549" y="286.404625"/>
     <use style="fill:#008000;stroke:#008000;" x="151.975385" xlink:href="#mc86e5ad549" y="285.906443"/>
     <use style="fill:#008000;stroke:#008000;" x="150.787879" xlink:href="#mc86e5ad549" y="285.377291"/>
     <use style="fill:#008000;stroke:#008000;" x="149.612044" xlink:href="#mc86e5ad549" y="284.814629"/>
     <use style="fill:#008000;stroke:#008000;" x="148.447708" xlink:href="#mc86e5ad549" y="284.215682"/>
     <use style="fill:#008000;stroke:#008000;" x="147.294705" xlink:href="#mc86e5ad549" y="283.577419"/>
     <use style="fill:#008000;stroke:#008000;" x="146.152868" xlink:href="#mc86e5ad549" y="282.896538"/>
     <use style="fill:#008000;stroke:#008000;" x="145.022037" xlink:href="#mc86e5ad549" y="282.169448"/>
     <use style="fill:#008000;stroke:#008000;" x="143.902054" xlink:href="#mc86e5ad549" y="281.39225"/>
     <use style="fill:#008000;stroke:#008000;" x="142.792762" xlink:href="#mc86e5ad549" y="280.560721"/>
     <use style="fill:#008000;stroke:#008000;" x="141.69401" xlink:href="#mc86e5ad549" y="279.670301"/>
     <use style="fill:#008000;stroke:#008000;" x="140.605648" xlink:href="#mc86e5ad549" y="278.716087"/>
     <use style="fill:#008000;stroke:#008000;" x="139.527529" xlink:href="#mc86e5ad549" y="277.692831"/>
     <use style="fill:#008000;stroke:#008000;" x="138.45951" xlink:href="#mc86e5ad549" y="276.594957"/>
     <use style="fill:#008000;stroke:#008000;" x="137.401449" xlink:href="#mc86e5ad549" y="275.416582"/>
     <use style="fill:#008000;stroke:#008000;" x="136.353208" xlink:href="#mc86e5ad549" y="274.151556"/>
     <use style="fill:#008000;stroke:#008000;" x="135.31465" xlink:href="#mc86e5ad549" y="272.79353"/>
     <use style="fill:#008000;stroke:#008000;" x="134.285643" xlink:href="#mc86e5ad549" y="271.336038"/>
     <use style="fill:#008000;stroke:#008000;" x="133.266054" xlink:href="#mc86e5ad549" y="269.772626"/>
     <use style="fill:#008000;stroke:#008000;" x="132.255755" xlink:href="#mc86e5ad549" y="268.097018"/>
     <use style="fill:#008000;stroke:#008000;" x="131.25462" xlink:href="#mc86e5ad549" y="266.303331"/>
     <use style="fill:#008000;stroke:#008000;" x="130.262524" xlink:href="#mc86e5ad549" y="264.386352"/>
     <use style="fill:#008000;stroke:#008000;" x="129.279346" xlink:href="#mc86e5ad549" y="262.341866"/>
     <use style="fill:#008000;stroke:#008000;" x="128.304966" xlink:href="#mc86e5ad549" y="260.167045"/>
     <use style="fill:#008000;stroke:#008000;" x="127.339267" xlink:href="#mc86e5ad549" y="257.860888"/>
     <use style="fill:#008000;stroke:#008000;" x="126.382133" xlink:href="#mc86e5ad549" y="255.424693"/>
     <use style="fill:#008000;stroke:#008000;" x="125.43345" xlink:href="#mc86e5ad549" y="252.862551"/>
     <use style="fill:#008000;stroke:#008000;" x="124.493107" xlink:href="#mc86e5ad549" y="250.181808"/>
     <use style="fill:#008000;stroke:#008000;" x="123.560995" xlink:href="#mc86e5ad549" y="247.393468"/>
     <use style="fill:#008000;stroke:#008000;" x="122.637005" xlink:href="#mc86e5ad549" y="244.512464"/>
     <use style="fill:#008000;stroke:#008000;" x="121.721033" xlink:href="#mc86e5ad549" y="241.557726"/>
     <use style="fill:#008000;stroke:#008000;" x="120.812975" xlink:href="#mc86e5ad549" y="238.551999"/>
     <use style="fill:#008000;stroke:#008000;" x="119.912727" xlink:href="#mc86e5ad549" y="235.52133"/>
     <use style="fill:#008000;stroke:#008000;" x="119.020191" xlink:href="#mc86e5ad549" y="232.494239"/>
     <use style="fill:#008000;stroke:#008000;" x="118.135267" xlink:href="#mc86e5ad549" y="229.500568"/>
     <use style="fill:#008000;stroke:#008000;" x="117.257858" xlink:href="#mc86e5ad549" y="226.570088"/>
     <use style="fill:#008000;stroke:#008000;" x="116.387869" xlink:href="#mc86e5ad549" y="223.730995"/>
     <use style="fill:#008000;stroke:#008000;" x="115.525206" xlink:href="#mc86e5ad549" y="221.008416"/>
     <use style="fill:#008000;stroke:#008000;" x="114.669777" xlink:href="#mc86e5ad549" y="218.423115"/>
     <use style="fill:#008000;stroke:#008000;" x="113.821492" xlink:href="#mc86e5ad549" y="215.99052"/>
     <use style="fill:#008000;stroke:#008000;" x="112.980261" xlink:href="#mc86e5ad549" y="213.720189"/>
     <use style="fill:#008000;stroke:#008000;" x="112.145997" xlink:href="#mc86e5ad549" y="211.615745"/>
     <use style="fill:#008000;stroke:#008000;" x="111.318613" xlink:href="#mc86e5ad549" y="209.675281"/>
     <use style="fill:#008000;stroke:#008000;" x="110.498025" xlink:href="#mc86e5ad549" y="207.892131"/>
     <use style="fill:#008000;stroke:#008000;" x="109.684149" xlink:href="#mc86e5ad549" y="206.25591"/>
     <use style="fill:#008000;stroke:#008000;" x="108.876904" xlink:href="#mc86e5ad549" y="204.753674"/>
     <use style="fill:#008000;stroke:#008000;" x="108.076209" xlink:href="#mc86e5ad549" y="203.371074"/>
     <use style="fill:#008000;stroke:#008000;" x="107.281983" xlink:href="#mc86e5ad549" y="202.093411"/>
     <use style="fill:#008000;stroke:#008000;" x="106.49415" xlink:href="#mc86e5ad549" y="200.906499"/>
     <use style="fill:#008000;stroke:#008000;" x="105.712633" xlink:href="#mc86e5ad549" y="199.797331"/>
     <use style="fill:#008000;stroke:#008000;" x="104.937354" xlink:href="#mc86e5ad549" y="198.754523"/>
     <use style="fill:#008000;stroke:#008000;" x="104.168241" xlink:href="#mc86e5ad549" y="197.768573"/>
     <use style="fill:#008000;stroke:#008000;" x="103.405221" xlink:href="#mc86e5ad549" y="196.831945"/>
     <use style="fill:#008000;stroke:#008000;" x="102.648219" xlink:href="#mc86e5ad549" y="195.939024"/>
     <use style="fill:#008000;stroke:#008000;" x="101.897167" xlink:href="#mc86e5ad549" y="195.085978"/>
     <use style="fill:#008000;stroke:#008000;" x="101.151994" xlink:href="#mc86e5ad549" y="194.270532"/>
     <use style="fill:#008000;stroke:#008000;" x="100.412632" xlink:href="#mc86e5ad549" y="193.491718"/>
     <use style="fill:#008000;stroke:#008000;" x="99.679011" xlink:href="#mc86e5ad549" y="192.749595"/>
     <use style="fill:#008000;stroke:#008000;" x="98.951067" xlink:href="#mc86e5ad549" y="192.044977"/>
     <use style="fill:#008000;stroke:#008000;" x="98.228734" xlink:href="#mc86e5ad549" y="191.379182"/>
     <use style="fill:#008000;stroke:#008000;" x="97.511946" xlink:href="#mc86e5ad549" y="190.753809"/>
     <use style="fill:#008000;stroke:#008000;" x="96.80064" xlink:href="#mc86e5ad549" y="190.170549"/>
     <use style="fill:#008000;stroke:#008000;" x="96.094753" xlink:href="#mc86e5ad549" y="189.631026"/>
     <use style="fill:#008000;stroke:#008000;" x="95.394225" xlink:href="#mc86e5ad549" y="189.136668"/>
     <use style="fill:#008000;stroke:#008000;" x="94.698993" xlink:href="#mc86e5ad549" y="188.688607"/>
     <use style="fill:#008000;stroke:#008000;" x="94.008998" xlink:href="#mc86e5ad549" y="188.287602"/>
     <use style="fill:#008000;stroke:#008000;" x="93.324182" xlink:href="#mc86e5ad549" y="187.933993"/>
     <use style="fill:#008000;stroke:#008000;" x="92.644486" xlink:href="#mc86e5ad549" y="187.627674"/>
     <use style="fill:#008000;stroke:#008000;" x="91.969853" xlink:href="#mc86e5ad549" y="187.368107"/>
     <use style="fill:#008000;stroke:#008000;" x="91.300226" xlink:href="#mc86e5ad549" y="187.154338"/>
     <use style="fill:#008000;stroke:#008000;" x="90.63555" xlink:href="#mc86e5ad549" y="186.985035"/>
     <use style="fill:#008000;stroke:#008000;" x="89.975771" xlink:href="#mc86e5ad549" y="186.858522"/>
     <use style="fill:#008000;stroke:#008000;" x="89.320834" xlink:href="#mc86e5ad549" y="186.77282"/>
     <use style="fill:#008000;stroke:#008000;" x="88.670686" xlink:href="#mc86e5ad549" y="186.725672"/>
     <use style="fill:#008000;stroke:#008000;" x="88.025276" xlink:href="#mc86e5ad549" y="186.714585"/>
     <use style="fill:#008000;stroke:#008000;" x="87.38455" xlink:href="#mc86e5ad549" y="186.736861"/>
     <use style="fill:#008000;stroke:#008000;" x="86.74846" xlink:href="#mc86e5ad549" y="186.789653"/>
     <use style="fill:#008000;stroke:#008000;" x="86.116953" xlink:href="#mc86e5ad549" y="186.87002"/>
     <use style="fill:#008000;stroke:#008000;" x="85.489982" xlink:href="#mc86e5ad549" y="186.974983"/>
     <use style="fill:#008000;stroke:#008000;" x="84.867497" xlink:href="#mc86e5ad549" y="187.101576"/>
     <use style="fill:#008000;stroke:#008000;" x="84.249451" xlink:href="#mc86e5ad549" y="187.246882"/>
     <use style="fill:#008000;stroke:#008000;" x="83.635795" xlink:href="#mc86e5ad549" y="187.408052"/>
     <use style="fill:#008000;stroke:#008000;" x="83.026484" xlink:href="#mc86e5ad549" y="187.582318"/>
     <use style="fill:#008000;stroke:#008000;" x="82.421472" xlink:href="#mc86e5ad549" y="187.767"/>
     <use style="fill:#008000;stroke:#008000;" x="81.820713" xlink:href="#mc86e5ad549" y="187.959533"/>
     <use style="fill:#008000;stroke:#008000;" x="81.224162" xlink:href="#mc86e5ad549" y="188.157499"/>
     <use style="fill:#008000;stroke:#008000;" x="80.631775" xlink:href="#mc86e5ad549" y="188.358662"/>
     <use style="fill:#008000;stroke:#008000;" x="80.04351" xlink:href="#mc86e5ad549" y="188.561011"/>
     <use style="fill:#008000;stroke:#008000;" x="79.459323" xlink:href="#mc86e5ad549" y="188.762762"/>
     <use style="fill:#008000;stroke:#008000;" x="78.879171" xlink:href="#mc86e5ad549" y="188.962356"/>
     <use style="fill:#008000;stroke:#008000;" x="78.303014" xlink:href="#mc86e5ad549" y="189.158422"/>
     <use style="fill:#008000;stroke:#008000;" x="77.730809" xlink:href="#mc86e5ad549" y="189.349744"/>
     <use style="fill:#008000;stroke:#008000;" x="77.162517" xlink:href="#mc86e5ad549" y="189.535242"/>
     <use style="fill:#008000;stroke:#008000;" x="76.598098" xlink:href="#mc86e5ad549" y="189.713977"/>
     <use style="fill:#008000;stroke:#008000;" x="76.037512" xlink:href="#mc86e5ad549" y="189.885186"/>
     <use style="fill:#008000;stroke:#008000;" x="75.48072" xlink:href="#mc86e5ad549" y="190.048319"/>
     <use style="fill:#008000;stroke:#008000;" x="74.927684" xlink:href="#mc86e5ad549" y="190.203052"/>
     <use style="fill:#008000;stroke:#008000;" x="74.378365" xlink:href="#mc86e5ad549" y="190.34927"/>
     <use style="fill:#008000;stroke:#008000;" x="73.832727" xlink:href="#mc86e5ad549" y="190.487003"/>
    </g>
   </g>
   <g id="patch_3">
    <path d="M 57.6 307.584 
L 57.6 41.472 
" style="fill:none;stroke:#000000;stroke-linecap:square;stroke-linejoin:miter;stroke-width:0.8;"/>
   </g>
   <g id="patch_4">
    <path d="M 414.72 307.584 
L 414.72 41.472 
" style="fill:none;stroke:#000000;stroke-linecap:square;stroke-linejoin:miter;stroke-width:0.8;"/>
   </g>
   <g id="patch_5">
    <path d="M 57.6 307.584 
L 414.72 307.584 
" style="fill:none;stroke:#000000;stroke-linecap:square;stroke-linejoin:miter;stroke-width:0.8;"/>
   </g>
   <g id="patch_6">
    <path d="M 57.6 41.472 
L 414.72 41.472 
" style="fill:none;stroke:#000000;stroke-linecap:square;stroke-linejoin:miter;stroke-width:0.8;"/>
   </g>
   <g id="legend_1">
    <g id="patch_7">
     <path d="M 305.537188 93.506375 
L 407.72 93.506375 
Q 409.72 93.506375 409.72 91.506375 
L 409.72 48.472 
Q 409.72 46.472 407.72 46.472 
L 305.537188 46.472 
Q 303.537188 46.472 303.537188 48.472 
L 303.537188 91.506375 
Q 303.537188 93.506375 305.537188 93.506375 
z
" style="fill:#ffffff;opacity:0.8;stroke:#cccccc;stroke-linejoin:miter;"/>
    </g>
    <g id="line2d_26">
     <path d="M 307.537188 54.570438 
L 327.537188 54.570438 
" style="fill:none;stroke:#0000ff;stroke-linecap:square;stroke-width:1.5;"/>
    </g>
    <g id="line2d_27"/>
    <g id="text_13">
     <!-- reflectance -->
     <g transform="translate(335.537188 58.070438)scale(0.1 -0.1)">
      <defs>
       <path d="M 41.109375 46.296875 
Q 39.59375 47.171875 37.8125 47.578125 
Q 36.03125 48 33.890625 48 
Q 26.265625 48 22.1875 43.046875 
Q 18.109375 38.09375 18.109375 28.8125 
L 18.109375 0 
L 9.078125 0 
L 9.078125 54.6875 
L 18.109375 54.6875 
L 18.109375 46.1875 
Q 20.953125 51.171875 25.484375 53.578125 
Q 30.03125 56 36.53125 56 
Q 37.453125 56 38.578125 55.875 
Q 39.703125 55.765625 41.0625 55.515625 
z
" id="DejaVuSans-114"/>
       <path d="M 37.109375 75.984375 
L 37.109375 68.5 
L 28.515625 68.5 
Q 23.6875 68.5 21.796875 66.546875 
Q 19.921875 64.59375 19.921875 59.515625 
L 19.921875 54.6875 
L 34.71875 54.6875 
L 34.71875 47.703125 
L 19.921875 47.703125 
L 19.921875 0 
L 10.890625 0 
L 10.890625 47.703125 
L 2.296875 47.703125 
L 2.296875 54.6875 
L 10.890625 54.6875 
L 10.890625 58.5 
Q 10.890625 67.625 15.140625 71.796875 
Q 19.390625 75.984375 28.609375 75.984375 
z
" id="DejaVuSans-102"/>
       <path d="M 48.78125 52.59375 
L 48.78125 44.1875 
Q 44.96875 46.296875 41.140625 47.34375 
Q 37.3125 48.390625 33.40625 48.390625 
Q 24.65625 48.390625 19.8125 42.84375 
Q 14.984375 37.3125 14.984375 27.296875 
Q 14.984375 17.28125 19.8125 11.734375 
Q 24.65625 6.203125 33.40625 6.203125 
Q 37.3125 6.203125 41.140625 7.25 
Q 44.96875 8.296875 48.78125 10.40625 
L 48.78125 2.09375 
Q 45.015625 0.34375 40.984375 -0.53125 
Q 36.96875 -1.421875 32.421875 -1.421875 
Q 20.0625 -1.421875 12.78125 6.34375 
Q 5.515625 14.109375 5.515625 27.296875 
Q 5.515625 40.671875 12.859375 48.328125 
Q 20.21875 56 33.015625 56 
Q 37.15625 56 41.109375 55.140625 
Q 45.0625 54.296875 48.78125 52.59375 
z
" id="DejaVuSans-99"/>
      </defs>
      <use xlink:href="#DejaVuSans-114"/>
      <use x="38.863281" xlink:href="#DejaVuSans-101"/>
      <use x="100.386719" xlink:href="#DejaVuSans-102"/>
      <use x="135.591797" xlink:href="#DejaVuSans-108"/>
      <use x="163.375" xlink:href="#DejaVuSans-101"/>
      <use x="224.898438" xlink:href="#DejaVuSans-99"/>
      <use x="279.878906" xlink:href="#DejaVuSans-116"/>
      <use x="319.087891" xlink:href="#DejaVuSans-97"/>
      <use x="380.367188" xlink:href="#DejaVuSans-110"/>
      <use x="443.746094" xlink:href="#DejaVuSans-99"/>
      <use x="498.726562" xlink:href="#DejaVuSans-101"/>
     </g>
    </g>
    <g id="line2d_28">
     <path d="M 307.537188 69.248563 
L 327.537188 69.248563 
" style="fill:none;stroke:#ff0000;stroke-linecap:square;stroke-width:1.5;"/>
    </g>
    <g id="line2d_29"/>
    <g id="text_14">
     <!-- transmittance -->
     <g transform="translate(335.537188 72.748563)scale(0.1 -0.1)">
      <defs>
       <path d="M 44.28125 53.078125 
L 44.28125 44.578125 
Q 40.484375 46.53125 36.375 47.5 
Q 32.28125 48.484375 27.875 48.484375 
Q 21.1875 48.484375 17.84375 46.4375 
Q 14.5 44.390625 14.5 40.28125 
Q 14.5 37.15625 16.890625 35.375 
Q 19.28125 33.59375 26.515625 31.984375 
L 29.59375 31.296875 
Q 39.15625 29.25 43.1875 25.515625 
Q 47.21875 21.78125 47.21875 15.09375 
Q 47.21875 7.46875 41.1875 3.015625 
Q 35.15625 -1.421875 24.609375 -1.421875 
Q 20.21875 -1.421875 15.453125 -0.5625 
Q 10.6875 0.296875 5.421875 2 
L 5.421875 11.28125 
Q 10.40625 8.6875 15.234375 7.390625 
Q 20.0625 6.109375 24.8125 6.109375 
Q 31.15625 6.109375 34.5625 8.28125 
Q 37.984375 10.453125 37.984375 14.40625 
Q 37.984375 18.0625 35.515625 20.015625 
Q 33.0625 21.96875 24.703125 23.78125 
L 21.578125 24.515625 
Q 13.234375 26.265625 9.515625 29.90625 
Q 5.8125 33.546875 5.8125 39.890625 
Q 5.8125 47.609375 11.28125 51.796875 
Q 16.75 56 26.8125 56 
Q 31.78125 56 36.171875 55.265625 
Q 40.578125 54.546875 44.28125 53.078125 
z
" id="DejaVuSans-115"/>
       <path d="M 9.421875 54.6875 
L 18.40625 54.6875 
L 18.40625 0 
L 9.421875 0 
z
M 9.421875 75.984375 
L 18.40625 75.984375 
L 18.40625 64.59375 
L 9.421875 64.59375 
z
" id="DejaVuSans-105"/>
      </defs>
      <use xlink:href="#DejaVuSans-116"/>
      <use x="39.208984" xlink:href="#DejaVuSans-114"/>
      <use x="80.322266" xlink:href="#DejaVuSans-97"/>
      <use x="141.601562" xlink:href="#DejaVuSans-110"/>
      <use x="204.980469" xlink:href="#DejaVuSans-115"/>
      <use x="257.080078" xlink:href="#DejaVuSans-109"/>
      <use x="354.492188" xlink:href="#DejaVuSans-105"/>
      <use x="382.275391" xlink:href="#DejaVuSans-116"/>
      <use x="421.484375" xlink:href="#DejaVuSans-116"/>
      <use x="460.693359" xlink:href="#DejaVuSans-97"/>
      <use x="521.972656" xlink:href="#DejaVuSans-110"/>
      <use x="585.351562" xlink:href="#DejaVuSans-99"/>
      <use x="640.332031" xlink:href="#DejaVuSans-101"/>
     </g>
    </g>
    <g id="line2d_30">
     <path d="M 307.537188 83.926688 
L 327.537188 83.926688 
" style="fill:none;stroke:#008000;stroke-linecap:square;stroke-width:1.5;"/>
    </g>
    <g id="line2d_31">
     <g>
      <use style="fill:#008000;stroke:#008000;" x="317.537188" xlink:href="#mc86e5ad549" y="83.926688"/>
     </g>
    </g>
    <g id="text_15">
     <!-- loss -->
     <g transform="translate(335.537188 87.426688)scale(0.1 -0.1)">
      <defs>
       <path d="M 30.609375 48.390625 
Q 23.390625 48.390625 19.1875 42.75 
Q 14.984375 37.109375 14.984375 27.296875 
Q 14.984375 17.484375 19.15625 11.84375 
Q 23.34375 6.203125 30.609375 6.203125 
Q 37.796875 6.203125 41.984375 11.859375 
Q 46.1875 17.53125 46.1875 27.296875 
Q 46.1875 37.015625 41.984375 42.703125 
Q 37.796875 48.390625 30.609375 48.390625 
z
M 30.609375 56 
Q 42.328125 56 49.015625 48.375 
Q 55.71875 40.765625 55.71875 27.296875 
Q 55.71875 13.875 49.015625 6.21875 
Q 42.328125 -1.421875 30.609375 -1.421875 
Q 18.84375 -1.421875 12.171875 6.21875 
Q 5.515625 13.875 5.515625 27.296875 
Q 5.515625 40.765625 12.171875 48.375 
Q 18.84375 56 30.609375 56 
z
" id="DejaVuSans-111"/>
      </defs>
      <use xlink:href="#DejaVuSans-108"/>
      <use x="27.783203" xlink:href="#DejaVuSans-111"/>
      <use x="88.964844" xlink:href="#DejaVuSans-115"/>
      <use x="141.064453" xlink:href="#DejaVuSans-115"/>
     </g>
    </g>
   </g>
  </g>
 </g>
 <defs>
  <clipPath id="pbfdb7db301">
   <rect height="266.112" width="357.12" x="57.6" y="41.472"/>
  </clipPath>
 </defs>
</svg>
