<?xml version="1.0" encoding="utf-8" standalone="no"?>
<!DOCTYPE svg PUBLIC "-//W3C//DTD SVG 1.1//EN"
  "http://www.w3.org/Graphics/SVG/1.1/DTD/svg11.dtd">
<!-- Created with matplotlib (https://matplotlib.org/) -->
<svg height="345.6pt" version="1.1" viewBox="0 0 460.8 345.6" width="460.8pt" xmlns="http://www.w3.org/2000/svg" xmlns:xlink="http://www.w3.org/1999/xlink">
 <metadata>
  <rdf:RDF xmlns:cc="http://creativecommons.org/ns#" xmlns:dc="http://purl.org/dc/elements/1.1/" xmlns:rdf="http://www.w3.org/1999/02/22-rdf-syntax-ns#">
   <cc:Work>
    <dc:type rdf:resource="http://purl.org/dc/dcmitype/StillImage"/>
    <dc:date>2020-10-19T17:07:49.064646</dc:date>
    <dc:format>image/svg+xml</dc:format>
    <dc:creator>
     <cc:Agent>
      <dc:title>Matplotlib v3.3.2, https://matplotlib.org/</dc:title>
     </cc:Agent>
    </dc:creator>
   </cc:Work>
  </rdf:RDF>
 </metadata>
 <defs>
  <style type="text/css">*{stroke-linecap:butt;stroke-linejoin:round;}</style>
 </defs>
 <g id="figure_1">
  <g id="patch_1">
   <path d="M 0 345.6 
L 460.8 345.6 
L 460.8 0 
L 0 0 
z
" style="fill:#ffffff;"/>
  </g>
  <g id="axes_1">
   <g id="patch_2">
    <path d="M 57.6 307.584 
L 414.72 307.584 
L 414.72 41.472 
L 57.6 41.472 
z
" style="fill:#ffffff;"/>
   </g>
   <g id="matplotlib.axis_1">
    <g id="xtick_1">
     <g id="line2d_1">
      <path clip-path="url(#p779deffa2a)" d="M 57.6 307.584 
L 57.6 41.472 
" style="fill:none;stroke:#b0b0b0;stroke-linecap:square;stroke-width:0.8;"/>
     </g>
     <g id="line2d_2">
      <defs>
       <path d="M 0 0 
L 0 3.5 
" id="m04006a76f9" style="stroke:#000000;stroke-width:0.8;"/>
      </defs>
      <g>
       <use style="stroke:#000000;stroke-width:0.8;" x="57.6" xlink:href="#m04006a76f9" y="307.584"/>
      </g>
     </g>
     <g id="text_1">
      <!-- 0.4 -->
      <g transform="translate(49.648437 322.182437)scale(0.1 -0.1)">
       <defs>
        <path d="M 31.78125 66.40625 
Q 24.171875 66.40625 20.328125 58.90625 
Q 16.5 51.421875 16.5 36.375 
Q 16.5 21.390625 20.328125 13.890625 
Q 24.171875 6.390625 31.78125 6.390625 
Q 39.453125 6.390625 43.28125 13.890625 
Q 47.125 21.390625 47.125 36.375 
Q 47.125 51.421875 43.28125 58.90625 
Q 39.453125 66.40625 31.78125 66.40625 
z
M 31.78125 74.21875 
Q 44.046875 74.21875 50.515625 64.515625 
Q 56.984375 54.828125 56.984375 36.375 
Q 56.984375 17.96875 50.515625 8.265625 
Q 44.046875 -1.421875 31.78125 -1.421875 
Q 19.53125 -1.421875 13.0625 8.265625 
Q 6.59375 17.96875 6.59375 36.375 
Q 6.59375 54.828125 13.0625 64.515625 
Q 19.53125 74.21875 31.78125 74.21875 
z
" id="DejaVuSans-48"/>
        <path d="M 10.6875 12.40625 
L 21 12.40625 
L 21 0 
L 10.6875 0 
z
" id="DejaVuSans-46"/>
        <path d="M 37.796875 64.3125 
L 12.890625 25.390625 
L 37.796875 25.390625 
z
M 35.203125 72.90625 
L 47.609375 72.90625 
L 47.609375 25.390625 
L 58.015625 25.390625 
L 58.015625 17.1875 
L 47.609375 17.1875 
L 47.609375 0 
L 37.796875 0 
L 37.796875 17.1875 
L 4.890625 17.1875 
L 4.890625 26.703125 
z
" id="DejaVuSans-52"/>
       </defs>
       <use xlink:href="#DejaVuSans-48"/>
       <use x="63.623047" xlink:href="#DejaVuSans-46"/>
       <use x="95.410156" xlink:href="#DejaVuSans-52"/>
      </g>
     </g>
    </g>
    <g id="xtick_2">
     <g id="line2d_3">
      <path clip-path="url(#p779deffa2a)" d="M 130.647273 307.584 
L 130.647273 41.472 
" style="fill:none;stroke:#b0b0b0;stroke-linecap:square;stroke-width:0.8;"/>
     </g>
     <g id="line2d_4">
      <g>
       <use style="stroke:#000000;stroke-width:0.8;" x="130.647273" xlink:href="#m04006a76f9" y="307.584"/>
      </g>
     </g>
     <g id="text_2">
      <!-- 0.6 -->
      <g transform="translate(122.69571 322.182437)scale(0.1 -0.1)">
       <defs>
        <path d="M 33.015625 40.375 
Q 26.375 40.375 22.484375 35.828125 
Q 18.609375 31.296875 18.609375 23.390625 
Q 18.609375 15.53125 22.484375 10.953125 
Q 26.375 6.390625 33.015625 6.390625 
Q 39.65625 6.390625 43.53125 10.953125 
Q 47.40625 15.53125 47.40625 23.390625 
Q 47.40625 31.296875 43.53125 35.828125 
Q 39.65625 40.375 33.015625 40.375 
z
M 52.59375 71.296875 
L 52.59375 62.3125 
Q 48.875 64.0625 45.09375 64.984375 
Q 41.3125 65.921875 37.59375 65.921875 
Q 27.828125 65.921875 22.671875 59.328125 
Q 17.53125 52.734375 16.796875 39.40625 
Q 19.671875 43.65625 24.015625 45.921875 
Q 28.375 48.1875 33.59375 48.1875 
Q 44.578125 48.1875 50.953125 41.515625 
Q 57.328125 34.859375 57.328125 23.390625 
Q 57.328125 12.15625 50.6875 5.359375 
Q 44.046875 -1.421875 33.015625 -1.421875 
Q 20.359375 -1.421875 13.671875 8.265625 
Q 6.984375 17.96875 6.984375 36.375 
Q 6.984375 53.65625 15.1875 63.9375 
Q 23.390625 74.21875 37.203125 74.21875 
Q 40.921875 74.21875 44.703125 73.484375 
Q 48.484375 72.75 52.59375 71.296875 
z
" id="DejaVuSans-54"/>
       </defs>
       <use xlink:href="#DejaVuSans-48"/>
       <use x="63.623047" xlink:href="#DejaVuSans-46"/>
       <use x="95.410156" xlink:href="#DejaVuSans-54"/>
      </g>
     </g>
    </g>
    <g id="xtick_3">
     <g id="line2d_5">
      <path clip-path="url(#p779deffa2a)" d="M 203.694545 307.584 
L 203.694545 41.472 
" style="fill:none;stroke:#b0b0b0;stroke-linecap:square;stroke-width:0.8;"/>
     </g>
     <g id="line2d_6">
      <g>
       <use style="stroke:#000000;stroke-width:0.8;" x="203.694545" xlink:href="#m04006a76f9" y="307.584"/>
      </g>
     </g>
     <g id="text_3">
      <!-- 0.8 -->
      <g transform="translate(195.742983 322.182437)scale(0.1 -0.1)">
       <defs>
        <path d="M 31.78125 34.625 
Q 24.75 34.625 20.71875 30.859375 
Q 16.703125 27.09375 16.703125 20.515625 
Q 16.703125 13.921875 20.71875 10.15625 
Q 24.75 6.390625 31.78125 6.390625 
Q 38.8125 6.390625 42.859375 10.171875 
Q 46.921875 13.96875 46.921875 20.515625 
Q 46.921875 27.09375 42.890625 30.859375 
Q 38.875 34.625 31.78125 34.625 
z
M 21.921875 38.8125 
Q 15.578125 40.375 12.03125 44.71875 
Q 8.5 49.078125 8.5 55.328125 
Q 8.5 64.0625 14.71875 69.140625 
Q 20.953125 74.21875 31.78125 74.21875 
Q 42.671875 74.21875 48.875 69.140625 
Q 55.078125 64.0625 55.078125 55.328125 
Q 55.078125 49.078125 51.53125 44.71875 
Q 48 40.375 41.703125 38.8125 
Q 48.828125 37.15625 52.796875 32.3125 
Q 56.78125 27.484375 56.78125 20.515625 
Q 56.78125 9.90625 50.3125 4.234375 
Q 43.84375 -1.421875 31.78125 -1.421875 
Q 19.734375 -1.421875 13.25 4.234375 
Q 6.78125 9.90625 6.78125 20.515625 
Q 6.78125 27.484375 10.78125 32.3125 
Q 14.796875 37.15625 21.921875 38.8125 
z
M 18.3125 54.390625 
Q 18.3125 48.734375 21.84375 45.5625 
Q 25.390625 42.390625 31.78125 42.390625 
Q 38.140625 42.390625 41.71875 45.5625 
Q 45.3125 48.734375 45.3125 54.390625 
Q 45.3125 60.0625 41.71875 63.234375 
Q 38.140625 66.40625 31.78125 66.40625 
Q 25.390625 66.40625 21.84375 63.234375 
Q 18.3125 60.0625 18.3125 54.390625 
z
" id="DejaVuSans-56"/>
       </defs>
       <use xlink:href="#DejaVuSans-48"/>
       <use x="63.623047" xlink:href="#DejaVuSans-46"/>
       <use x="95.410156" xlink:href="#DejaVuSans-56"/>
      </g>
     </g>
    </g>
    <g id="xtick_4">
     <g id="line2d_7">
      <path clip-path="url(#p779deffa2a)" d="M 276.741818 307.584 
L 276.741818 41.472 
" style="fill:none;stroke:#b0b0b0;stroke-linecap:square;stroke-width:0.8;"/>
     </g>
     <g id="line2d_8">
      <g>
       <use style="stroke:#000000;stroke-width:0.8;" x="276.741818" xlink:href="#m04006a76f9" y="307.584"/>
      </g>
     </g>
     <g id="text_4">
      <!-- 1.0 -->
      <g transform="translate(268.790256 322.182437)scale(0.1 -0.1)">
       <defs>
        <path d="M 12.40625 8.296875 
L 28.515625 8.296875 
L 28.515625 63.921875 
L 10.984375 60.40625 
L 10.984375 69.390625 
L 28.421875 72.90625 
L 38.28125 72.90625 
L 38.28125 8.296875 
L 54.390625 8.296875 
L 54.390625 0 
L 12.40625 0 
z
" id="DejaVuSans-49"/>
       </defs>
       <use xlink:href="#DejaVuSans-49"/>
       <use x="63.623047" xlink:href="#DejaVuSans-46"/>
       <use x="95.410156" xlink:href="#DejaVuSans-48"/>
      </g>
     </g>
    </g>
    <g id="xtick_5">
     <g id="line2d_9">
      <path clip-path="url(#p779deffa2a)" d="M 349.789091 307.584 
L 349.789091 41.472 
" style="fill:none;stroke:#b0b0b0;stroke-linecap:square;stroke-width:0.8;"/>
     </g>
     <g id="line2d_10">
      <g>
       <use style="stroke:#000000;stroke-width:0.8;" x="349.789091" xlink:href="#m04006a76f9" y="307.584"/>
      </g>
     </g>
     <g id="text_5">
      <!-- 1.2 -->
      <g transform="translate(341.837528 322.182437)scale(0.1 -0.1)">
       <defs>
        <path d="M 19.1875 8.296875 
L 53.609375 8.296875 
L 53.609375 0 
L 7.328125 0 
L 7.328125 8.296875 
Q 12.9375 14.109375 22.625 23.890625 
Q 32.328125 33.6875 34.8125 36.53125 
Q 39.546875 41.84375 41.421875 45.53125 
Q 43.3125 49.21875 43.3125 52.78125 
Q 43.3125 58.59375 39.234375 62.25 
Q 35.15625 65.921875 28.609375 65.921875 
Q 23.96875 65.921875 18.8125 64.3125 
Q 13.671875 62.703125 7.8125 59.421875 
L 7.8125 69.390625 
Q 13.765625 71.78125 18.9375 73 
Q 24.125 74.21875 28.421875 74.21875 
Q 39.75 74.21875 46.484375 68.546875 
Q 53.21875 62.890625 53.21875 53.421875 
Q 53.21875 48.921875 51.53125 44.890625 
Q 49.859375 40.875 45.40625 35.40625 
Q 44.1875 33.984375 37.640625 27.21875 
Q 31.109375 20.453125 19.1875 8.296875 
z
" id="DejaVuSans-50"/>
       </defs>
       <use xlink:href="#DejaVuSans-49"/>
       <use x="63.623047" xlink:href="#DejaVuSans-46"/>
       <use x="95.410156" xlink:href="#DejaVuSans-50"/>
      </g>
     </g>
    </g>
    <g id="text_6">
     <!-- wavelength (μm) -->
     <g transform="translate(193.49125 335.860562)scale(0.1 -0.1)">
      <defs>
       <path d="M 4.203125 54.6875 
L 13.1875 54.6875 
L 24.421875 12.015625 
L 35.59375 54.6875 
L 46.1875 54.6875 
L 57.421875 12.015625 
L 68.609375 54.6875 
L 77.59375 54.6875 
L 63.28125 0 
L 52.6875 0 
L 40.921875 44.828125 
L 29.109375 0 
L 18.5 0 
z
" id="DejaVuSans-119"/>
       <path d="M 34.28125 27.484375 
Q 23.390625 27.484375 19.1875 25 
Q 14.984375 22.515625 14.984375 16.5 
Q 14.984375 11.71875 18.140625 8.90625 
Q 21.296875 6.109375 26.703125 6.109375 
Q 34.1875 6.109375 38.703125 11.40625 
Q 43.21875 16.703125 43.21875 25.484375 
L 43.21875 27.484375 
z
M 52.203125 31.203125 
L 52.203125 0 
L 43.21875 0 
L 43.21875 8.296875 
Q 40.140625 3.328125 35.546875 0.953125 
Q 30.953125 -1.421875 24.3125 -1.421875 
Q 15.921875 -1.421875 10.953125 3.296875 
Q 6 8.015625 6 15.921875 
Q 6 25.140625 12.171875 29.828125 
Q 18.359375 34.515625 30.609375 34.515625 
L 43.21875 34.515625 
L 43.21875 35.40625 
Q 43.21875 41.609375 39.140625 45 
Q 35.0625 48.390625 27.6875 48.390625 
Q 23 48.390625 18.546875 47.265625 
Q 14.109375 46.140625 10.015625 43.890625 
L 10.015625 52.203125 
Q 14.9375 54.109375 19.578125 55.046875 
Q 24.21875 56 28.609375 56 
Q 40.484375 56 46.34375 49.84375 
Q 52.203125 43.703125 52.203125 31.203125 
z
" id="DejaVuSans-97"/>
       <path d="M 2.984375 54.6875 
L 12.5 54.6875 
L 29.59375 8.796875 
L 46.6875 54.6875 
L 56.203125 54.6875 
L 35.6875 0 
L 23.484375 0 
z
" id="DejaVuSans-118"/>
       <path d="M 56.203125 29.59375 
L 56.203125 25.203125 
L 14.890625 25.203125 
Q 15.484375 15.921875 20.484375 11.0625 
Q 25.484375 6.203125 34.421875 6.203125 
Q 39.59375 6.203125 44.453125 7.46875 
Q 49.3125 8.734375 54.109375 11.28125 
L 54.109375 2.78125 
Q 49.265625 0.734375 44.1875 -0.34375 
Q 39.109375 -1.421875 33.890625 -1.421875 
Q 20.796875 -1.421875 13.15625 6.1875 
Q 5.515625 13.8125 5.515625 26.8125 
Q 5.515625 40.234375 12.765625 48.109375 
Q 20.015625 56 32.328125 56 
Q 43.359375 56 49.78125 48.890625 
Q 56.203125 41.796875 56.203125 29.59375 
z
M 47.21875 32.234375 
Q 47.125 39.59375 43.09375 43.984375 
Q 39.0625 48.390625 32.421875 48.390625 
Q 24.90625 48.390625 20.390625 44.140625 
Q 15.875 39.890625 15.1875 32.171875 
z
" id="DejaVuSans-101"/>
       <path d="M 9.421875 75.984375 
L 18.40625 75.984375 
L 18.40625 0 
L 9.421875 0 
z
" id="DejaVuSans-108"/>
       <path d="M 54.890625 33.015625 
L 54.890625 0 
L 45.90625 0 
L 45.90625 32.71875 
Q 45.90625 40.484375 42.875 44.328125 
Q 39.84375 48.1875 33.796875 48.1875 
Q 26.515625 48.1875 22.3125 43.546875 
Q 18.109375 38.921875 18.109375 30.90625 
L 18.109375 0 
L 9.078125 0 
L 9.078125 54.6875 
L 18.109375 54.6875 
L 18.109375 46.1875 
Q 21.34375 51.125 25.703125 53.5625 
Q 30.078125 56 35.796875 56 
Q 45.21875 56 50.046875 50.171875 
Q 54.890625 44.34375 54.890625 33.015625 
z
" id="DejaVuSans-110"/>
       <path d="M 45.40625 27.984375 
Q 45.40625 37.75 41.375 43.109375 
Q 37.359375 48.484375 30.078125 48.484375 
Q 22.859375 48.484375 18.828125 43.109375 
Q 14.796875 37.75 14.796875 27.984375 
Q 14.796875 18.265625 18.828125 12.890625 
Q 22.859375 7.515625 30.078125 7.515625 
Q 37.359375 7.515625 41.375 12.890625 
Q 45.40625 18.265625 45.40625 27.984375 
z
M 54.390625 6.78125 
Q 54.390625 -7.171875 48.1875 -13.984375 
Q 42 -20.796875 29.203125 -20.796875 
Q 24.46875 -20.796875 20.265625 -20.09375 
Q 16.0625 -19.390625 12.109375 -17.921875 
L 12.109375 -9.1875 
Q 16.0625 -11.328125 19.921875 -12.34375 
Q 23.78125 -13.375 27.78125 -13.375 
Q 36.625 -13.375 41.015625 -8.765625 
Q 45.40625 -4.15625 45.40625 5.171875 
L 45.40625 9.625 
Q 42.625 4.78125 38.28125 2.390625 
Q 33.9375 0 27.875 0 
Q 17.828125 0 11.671875 7.65625 
Q 5.515625 15.328125 5.515625 27.984375 
Q 5.515625 40.671875 11.671875 48.328125 
Q 17.828125 56 27.875 56 
Q 33.9375 56 38.28125 53.609375 
Q 42.625 51.21875 45.40625 46.390625 
L 45.40625 54.6875 
L 54.390625 54.6875 
z
" id="DejaVuSans-103"/>
       <path d="M 18.3125 70.21875 
L 18.3125 54.6875 
L 36.8125 54.6875 
L 36.8125 47.703125 
L 18.3125 47.703125 
L 18.3125 18.015625 
Q 18.3125 11.328125 20.140625 9.421875 
Q 21.96875 7.515625 27.59375 7.515625 
L 36.8125 7.515625 
L 36.8125 0 
L 27.59375 0 
Q 17.1875 0 13.234375 3.875 
Q 9.28125 7.765625 9.28125 18.015625 
L 9.28125 47.703125 
L 2.6875 47.703125 
L 2.6875 54.6875 
L 9.28125 54.6875 
L 9.28125 70.21875 
z
" id="DejaVuSans-116"/>
       <path d="M 54.890625 33.015625 
L 54.890625 0 
L 45.90625 0 
L 45.90625 32.71875 
Q 45.90625 40.484375 42.875 44.328125 
Q 39.84375 48.1875 33.796875 48.1875 
Q 26.515625 48.1875 22.3125 43.546875 
Q 18.109375 38.921875 18.109375 30.90625 
L 18.109375 0 
L 9.078125 0 
L 9.078125 75.984375 
L 18.109375 75.984375 
L 18.109375 46.1875 
Q 21.34375 51.125 25.703125 53.5625 
Q 30.078125 56 35.796875 56 
Q 45.21875 56 50.046875 50.171875 
Q 54.890625 44.34375 54.890625 33.015625 
z
" id="DejaVuSans-104"/>
       <path id="DejaVuSans-32"/>
       <path d="M 31 75.875 
Q 24.46875 64.65625 21.28125 53.65625 
Q 18.109375 42.671875 18.109375 31.390625 
Q 18.109375 20.125 21.3125 9.0625 
Q 24.515625 -2 31 -13.1875 
L 23.1875 -13.1875 
Q 15.875 -1.703125 12.234375 9.375 
Q 8.59375 20.453125 8.59375 31.390625 
Q 8.59375 42.28125 12.203125 53.3125 
Q 15.828125 64.359375 23.1875 75.875 
z
" id="DejaVuSans-40"/>
       <path d="M 8.5 -20.796875 
L 8.5 54.6875 
L 17.484375 54.6875 
L 17.484375 20.703125 
Q 17.484375 13.625 20.84375 10 
Q 24.21875 6.390625 30.8125 6.390625 
Q 38.03125 6.390625 41.671875 10.484375 
Q 45.3125 14.59375 45.3125 22.796875 
L 45.3125 54.6875 
L 54.296875 54.6875 
L 54.296875 12.59375 
Q 54.296875 9.671875 55.140625 8.28125 
Q 56 6.890625 57.8125 6.890625 
Q 58.25 6.890625 59.03125 7.15625 
Q 59.8125 7.421875 61.1875 8.015625 
L 61.1875 0.78125 
Q 59.1875 -0.34375 57.390625 -0.875 
Q 55.609375 -1.421875 53.90625 -1.421875 
Q 50.53125 -1.421875 48.53125 0.484375 
Q 46.53125 2.390625 45.796875 6.296875 
Q 43.359375 2.4375 39.8125 0.5 
Q 36.28125 -1.421875 31.5 -1.421875 
Q 26.515625 -1.421875 23.015625 0.484375 
Q 19.53125 2.390625 17.484375 6.203125 
L 17.484375 -20.796875 
z
" id="DejaVuSans-956"/>
       <path d="M 52 44.1875 
Q 55.375 50.25 60.0625 53.125 
Q 64.75 56 71.09375 56 
Q 79.640625 56 84.28125 50.015625 
Q 88.921875 44.046875 88.921875 33.015625 
L 88.921875 0 
L 79.890625 0 
L 79.890625 32.71875 
Q 79.890625 40.578125 77.09375 44.375 
Q 74.3125 48.1875 68.609375 48.1875 
Q 61.625 48.1875 57.5625 43.546875 
Q 53.515625 38.921875 53.515625 30.90625 
L 53.515625 0 
L 44.484375 0 
L 44.484375 32.71875 
Q 44.484375 40.625 41.703125 44.40625 
Q 38.921875 48.1875 33.109375 48.1875 
Q 26.21875 48.1875 22.15625 43.53125 
Q 18.109375 38.875 18.109375 30.90625 
L 18.109375 0 
L 9.078125 0 
L 9.078125 54.6875 
L 18.109375 54.6875 
L 18.109375 46.1875 
Q 21.1875 51.21875 25.484375 53.609375 
Q 29.78125 56 35.6875 56 
Q 41.65625 56 45.828125 52.96875 
Q 50 49.953125 52 44.1875 
z
" id="DejaVuSans-109"/>
       <path d="M 8.015625 75.875 
L 15.828125 75.875 
Q 23.140625 64.359375 26.78125 53.3125 
Q 30.421875 42.28125 30.421875 31.390625 
Q 30.421875 20.453125 26.78125 9.375 
Q 23.140625 -1.703125 15.828125 -13.1875 
L 8.015625 -13.1875 
Q 14.5 -2 17.703125 9.0625 
Q 20.90625 20.125 20.90625 31.390625 
Q 20.90625 42.671875 17.703125 53.65625 
Q 14.5 64.65625 8.015625 75.875 
z
" id="DejaVuSans-41"/>
      </defs>
      <use xlink:href="#DejaVuSans-119"/>
      <use x="81.787109" xlink:href="#DejaVuSans-97"/>
      <use x="143.066406" xlink:href="#DejaVuSans-118"/>
      <use x="202.246094" xlink:href="#DejaVuSans-101"/>
      <use x="263.769531" xlink:href="#DejaVuSans-108"/>
      <use x="291.552734" xlink:href="#DejaVuSans-101"/>
      <use x="353.076172" xlink:href="#DejaVuSans-110"/>
      <use x="416.455078" xlink:href="#DejaVuSans-103"/>
      <use x="479.931641" xlink:href="#DejaVuSans-116"/>
      <use x="519.140625" xlink:href="#DejaVuSans-104"/>
      <use x="582.519531" xlink:href="#DejaVuSans-32"/>
      <use x="614.306641" xlink:href="#DejaVuSans-40"/>
      <use x="653.320312" xlink:href="#DejaVuSans-956"/>
      <use x="716.943359" xlink:href="#DejaVuSans-109"/>
      <use x="814.355469" xlink:href="#DejaVuSans-41"/>
     </g>
    </g>
   </g>
   <g id="matplotlib.axis_2">
    <g id="ytick_1">
     <g id="line2d_11">
      <path clip-path="url(#p779deffa2a)" d="M 57.6 300.533585 
L 414.72 300.533585 
" style="fill:none;stroke:#b0b0b0;stroke-linecap:square;stroke-width:0.8;"/>
     </g>
     <g id="line2d_12">
      <defs>
       <path d="M 0 0 
L -3.5 0 
" id="m166e4b04de" style="stroke:#000000;stroke-width:0.8;"/>
      </defs>
      <g>
       <use style="stroke:#000000;stroke-width:0.8;" x="57.6" xlink:href="#m166e4b04de" y="300.533585"/>
      </g>
     </g>
     <g id="text_7">
      <!-- 0.0 -->
      <g transform="translate(34.696875 304.332804)scale(0.1 -0.1)">
       <use xlink:href="#DejaVuSans-48"/>
       <use x="63.623047" xlink:href="#DejaVuSans-46"/>
       <use x="95.410156" xlink:href="#DejaVuSans-48"/>
      </g>
     </g>
    </g>
    <g id="ytick_2">
     <g id="line2d_13">
      <path clip-path="url(#p779deffa2a)" d="M 57.6 248.629973 
L 414.72 248.629973 
" style="fill:none;stroke:#b0b0b0;stroke-linecap:square;stroke-width:0.8;"/>
     </g>
     <g id="line2d_14">
      <g>
       <use style="stroke:#000000;stroke-width:0.8;" x="57.6" xlink:href="#m166e4b04de" y="248.629973"/>
      </g>
     </g>
     <g id="text_8">
      <!-- 0.2 -->
      <g transform="translate(34.696875 252.429192)scale(0.1 -0.1)">
       <use xlink:href="#DejaVuSans-48"/>
       <use x="63.623047" xlink:href="#DejaVuSans-46"/>
       <use x="95.410156" xlink:href="#DejaVuSans-50"/>
      </g>
     </g>
    </g>
    <g id="ytick_3">
     <g id="line2d_15">
      <path clip-path="url(#p779deffa2a)" d="M 57.6 196.72636 
L 414.72 196.72636 
" style="fill:none;stroke:#b0b0b0;stroke-linecap:square;stroke-width:0.8;"/>
     </g>
     <g id="line2d_16">
      <g>
       <use style="stroke:#000000;stroke-width:0.8;" x="57.6" xlink:href="#m166e4b04de" y="196.72636"/>
      </g>
     </g>
     <g id="text_9">
      <!-- 0.4 -->
      <g transform="translate(34.696875 200.525579)scale(0.1 -0.1)">
       <use xlink:href="#DejaVuSans-48"/>
       <use x="63.623047" xlink:href="#DejaVuSans-46"/>
       <use x="95.410156" xlink:href="#DejaVuSans-52"/>
      </g>
     </g>
    </g>
    <g id="ytick_4">
     <g id="line2d_17">
      <path clip-path="url(#p779deffa2a)" d="M 57.6 144.822747 
L 414.72 144.822747 
" style="fill:none;stroke:#b0b0b0;stroke-linecap:square;stroke-width:0.8;"/>
     </g>
     <g id="line2d_18">
      <g>
       <use style="stroke:#000000;stroke-width:0.8;" x="57.6" xlink:href="#m166e4b04de" y="144.822747"/>
      </g>
     </g>
     <g id="text_10">
      <!-- 0.6 -->
      <g transform="translate(34.696875 148.621966)scale(0.1 -0.1)">
       <use xlink:href="#DejaVuSans-48"/>
       <use x="63.623047" xlink:href="#DejaVuSans-46"/>
       <use x="95.410156" xlink:href="#DejaVuSans-54"/>
      </g>
     </g>
    </g>
    <g id="ytick_5">
     <g id="line2d_19">
      <path clip-path="url(#p779deffa2a)" d="M 57.6 92.919135 
L 414.72 92.919135 
" style="fill:none;stroke:#b0b0b0;stroke-linecap:square;stroke-width:0.8;"/>
     </g>
     <g id="line2d_20">
      <g>
       <use style="stroke:#000000;stroke-width:0.8;" x="57.6" xlink:href="#m166e4b04de" y="92.919135"/>
      </g>
     </g>
     <g id="text_11">
      <!-- 0.8 -->
      <g transform="translate(34.696875 96.718353)scale(0.1 -0.1)">
       <use xlink:href="#DejaVuSans-48"/>
       <use x="63.623047" xlink:href="#DejaVuSans-46"/>
       <use x="95.410156" xlink:href="#DejaVuSans-56"/>
      </g>
     </g>
    </g>
   </g>
   <g id="line2d_21">
    <path clip-path="url(#p779deffa2a)" d="M 398.487273 55.16149 
L 388.891572 55.08324 
L 379.666719 54.790383 
L 354.014047 53.651128 
L 346.076673 53.568 
L 338.419031 53.759415 
L 331.026588 54.224351 
L 323.885803 54.921912 
L 316.98404 55.802114 
L 310.309495 56.823542 
L 300.699759 58.549499 
L 291.542246 60.431964 
L 282.805768 62.419431 
L 271.76338 65.179363 
L 261.358819 68.007154 
L 249.168806 71.568813 
L 235.617099 75.786489 
L 223.111184 79.924171 
L 215.29662 82.73578 
L 209.688168 85.002971 
L 206.062846 86.682858 
L 202.524619 88.594516 
L 199.070386 90.857212 
L 197.373837 92.167192 
L 195.69719 93.625599 
L 194.040095 95.256638 
L 192.402213 97.085683 
L 190.783212 99.138569 
L 189.182766 101.44076 
L 187.600559 104.016407 
L 186.036281 106.887363 
L 184.489629 110.07223 
L 182.960306 113.585477 
L 181.448022 117.436715 
L 179.952496 121.630157 
L 178.473449 126.164291 
L 175.563716 136.219446 
L 172.716726 147.475294 
L 169.930473 159.720187 
L 167.203032 172.666884 
L 161.917294 199.213939 
L 158.094212 218.121964 
L 155.609691 229.580326 
L 153.174736 239.858945 
L 150.787879 248.88532 
L 148.447708 256.710996 
L 146.152868 263.469357 
L 143.902054 269.321508 
L 141.69401 274.408718 
L 139.527529 278.822829 
L 137.401449 282.597406 
L 135.31465 285.717519 
L 133.266054 288.144426 
L 132.255755 289.087469 
L 131.25462 289.848758 
L 130.262524 290.43115 
L 129.279346 290.841145 
L 128.304966 291.088847 
L 127.339267 291.187549 
L 126.382133 291.153034 
L 124.493107 290.754572 
L 122.637005 290.035475 
L 119.912727 288.629905 
L 111.318613 283.86961 
L 107.281983 281.983057 
L 100.412632 279.09788 
L 94.698993 276.582543 
L 89.975771 274.259582 
L 86.116953 272.114859 
L 83.635795 270.516549 
L 81.224162 268.700046 
L 78.879171 266.610186 
L 76.598098 264.223727 
L 74.378365 261.568007 
L 73.832727 260.869101 
L 73.832727 260.869101 
" style="fill:none;stroke:#0000ff;stroke-linecap:square;stroke-width:1.5;"/>
   </g>
   <g id="line2d_22">
    <path clip-path="url(#p779deffa2a)" d="M 398.487273 294.885802 
L 370.791624 294.077228 
L 342.213818 292.997205 
L 316.98404 291.820963 
L 297.598609 290.722309 
L 279.982191 289.525842 
L 263.903207 288.228008 
L 246.832035 286.612656 
L 227.171193 284.722248 
L 221.120093 284.320335 
L 215.29662 284.130879 
L 209.688168 284.211746 
L 206.062846 284.442606 
L 202.524619 284.831223 
L 199.070386 285.386896 
L 195.69719 286.110944 
L 192.402213 286.991478 
L 187.600559 288.531304 
L 179.952496 291.079671 
L 177.01061 291.76427 
L 175.563716 291.96172 
L 174.132506 292.03458 
L 172.716726 291.960827 
L 171.31613 291.718027 
L 169.930473 291.283792 
L 168.559518 290.636391 
L 167.203032 289.755528 
L 165.860787 288.623285 
L 164.532561 287.225206 
L 163.218135 285.551436 
L 161.917294 283.597833 
L 160.629829 281.366909 
L 159.355536 278.868493 
L 156.845662 273.146203 
L 154.386111 266.654152 
L 150.787879 256.160104 
L 146.152868 242.514382 
L 143.902054 236.451055 
L 141.69401 231.109807 
L 139.527529 226.54622 
L 137.401449 222.744019 
L 135.31465 219.635126 
L 133.266054 217.126594 
L 131.25462 215.13008 
L 129.279346 213.58393 
L 127.339267 212.457935 
L 125.43345 211.739776 
L 123.560995 211.413763 
L 121.721033 211.446396 
L 119.912727 211.786081 
L 118.135267 212.373111 
L 116.387869 213.150771 
L 113.821492 214.573807 
L 111.318613 216.204737 
L 108.076209 218.578591 
L 104.168241 221.735345 
L 100.412632 225.039074 
L 96.094753 229.141258 
L 88.025276 237.220576 
L 81.820713 243.632765 
L 76.598098 249.402772 
L 73.832727 252.493461 
L 73.832727 252.493461 
" style="fill:none;stroke:#ff0000;stroke-linecap:square;stroke-width:1.5;"/>
   </g>
   <g id="line2d_23">
    <path clip-path="url(#p779deffa2a)" d="M 398.487273 292.035401 
L 388.891572 292.367892 
L 379.666719 292.931482 
L 350.009445 295.188809 
L 342.213818 295.457306 
L 334.690528 295.451384 
L 327.425548 295.197238 
L 320.4058 294.745025 
L 310.309495 293.794335 
L 300.699759 292.621161 
L 288.584761 290.86185 
L 277.201235 288.978646 
L 263.903207 286.558284 
L 246.832035 283.192037 
L 235.617099 280.812507 
L 227.171193 278.812967 
L 221.120093 277.146082 
L 217.213284 275.896891 
L 213.40384 274.489424 
L 209.688168 272.867976 
L 206.062846 270.957228 
L 202.524619 268.656955 
L 200.787191 267.321696 
L 199.070386 265.838584 
L 197.373837 264.187263 
L 195.69719 262.34615 
L 194.040095 260.292981 
L 192.402213 258.005532 
L 190.783212 255.462491 
L 189.182766 252.644456 
L 187.600559 249.534982 
L 186.036281 246.121641 
L 184.489629 242.397004 
L 182.960306 238.359509 
L 181.448022 234.014134 
L 178.473449 224.454902 
L 175.563716 213.901527 
L 172.716726 202.646571 
L 163.218135 163.910891 
L 160.629829 155.022206 
L 159.355536 151.203266 
L 158.094212 147.840734 
L 156.845662 144.94786 
L 155.609691 142.523781 
L 154.386111 140.553672 
L 153.174736 139.009804 
L 151.975385 137.85342 
L 150.787879 137.037269 
L 149.612044 136.508534 
L 148.447708 136.211918 
L 147.294705 136.092615 
L 145.022037 136.184588 
L 139.527529 136.713644 
L 132.255755 136.926254 
L 130.262524 137.348294 
L 128.304966 138.024492 
L 125.43345 139.340227 
L 121.721033 141.039419 
L 119.912727 141.666707 
L 118.135267 142.097315 
L 116.387869 142.330067 
L 114.669777 142.378497 
L 112.980261 142.263473 
L 110.498025 141.835457 
L 108.076209 141.167584 
L 104.937354 140.015026 
L 101.151994 138.308842 
L 96.094753 135.717267 
L 89.320834 132.25335 
L 85.489982 130.554843 
L 82.421472 129.450634 
L 80.04351 128.832298 
L 77.730809 128.499804 
L 76.037512 128.466431 
L 74.378365 128.624815 
L 73.832727 128.72013 
L 73.832727 128.72013 
" style="fill:none;stroke:#008000;stroke-linecap:square;stroke-width:1.5;"/>
    <defs>
     <path d="M 0 3 
C 0.795609 3 1.55874 2.683901 2.12132 2.12132 
C 2.683901 1.55874 3 0.795609 3 0 
C 3 -0.795609 2.683901 -1.55874 2.12132 -2.12132 
C 1.55874 -2.683901 0.795609 -3 0 -3 
C -0.795609 -3 -1.55874 -2.683901 -2.12132 -2.12132 
C -2.683901 -1.55874 -3 -0.795609 -3 0 
C -3 0.795609 -2.683901 1.55874 -2.12132 2.12132 
C -1.55874 2.683901 -0.795609 3 0 3 
z
" id="m174aa049a2" style="stroke:#008000;"/>
    </defs>
    <g clip-path="url(#p779deffa2a)">
     <use style="fill:#008000;stroke:#008000;" x="398.487273" xlink:href="#m174aa049a2" y="292.035401"/>
     <use style="fill:#008000;stroke:#008000;" x="393.641682" xlink:href="#m174aa049a2" y="292.169046"/>
     <use style="fill:#008000;stroke:#008000;" x="388.891572" xlink:href="#m174aa049a2" y="292.367892"/>
     <use style="fill:#008000;stroke:#008000;" x="384.234146" xlink:href="#m174aa049a2" y="292.625593"/>
     <use style="fill:#008000;stroke:#008000;" x="379.666719" xlink:href="#m174aa049a2" y="292.931482"/>
     <use style="fill:#008000;stroke:#008000;" x="375.186707" xlink:href="#m174aa049a2" y="293.272001"/>
     <use style="fill:#008000;stroke:#008000;" x="370.791624" xlink:href="#m174aa049a2" y="293.632082"/>
     <use style="fill:#008000;stroke:#008000;" x="366.479078" xlink:href="#m174aa049a2" y="293.99609"/>
     <use style="fill:#008000;stroke:#008000;" x="362.246765" xlink:href="#m174aa049a2" y="294.348374"/>
     <use style="fill:#008000;stroke:#008000;" x="358.092468" xlink:href="#m174aa049a2" y="294.673711"/>
     <use style="fill:#008000;stroke:#008000;" x="354.014047" xlink:href="#m174aa049a2" y="294.95793"/>
     <use style="fill:#008000;stroke:#008000;" x="350.009445" xlink:href="#m174aa049a2" y="295.188809"/>
     <use style="fill:#008000;stroke:#008000;" x="346.076673" xlink:href="#m174aa049a2" y="295.357096"/>
     <use style="fill:#008000;stroke:#008000;" x="342.213818" xlink:href="#m174aa049a2" y="295.457306"/>
     <use style="fill:#008000;stroke:#008000;" x="338.419031" xlink:href="#m174aa049a2" y="295.488"/>
     <use style="fill:#008000;stroke:#008000;" x="334.690528" xlink:href="#m174aa049a2" y="295.451384"/>
     <use style="fill:#008000;stroke:#008000;" x="331.026588" xlink:href="#m174aa049a2" y="295.352348"/>
     <use style="fill:#008000;stroke:#008000;" x="327.425548" xlink:href="#m174aa049a2" y="295.197238"/>
     <use style="fill:#008000;stroke:#008000;" x="323.885803" xlink:href="#m174aa049a2" y="294.992723"/>
     <use style="fill:#008000;stroke:#008000;" x="320.4058" xlink:href="#m174aa049a2" y="294.745025"/>
     <use style="fill:#008000;stroke:#008000;" x="316.98404" xlink:href="#m174aa049a2" y="294.459617"/>
     <use style="fill:#008000;stroke:#008000;" x="313.619072" xlink:href="#m174aa049a2" y="294.141279"/>
     <use style="fill:#008000;stroke:#008000;" x="310.309495" xlink:href="#m174aa049a2" y="293.794335"/>
     <use style="fill:#008000;stroke:#008000;" x="307.053952" xlink:href="#m174aa049a2" y="293.422837"/>
     <use style="fill:#008000;stroke:#008000;" x="303.85113" xlink:href="#m174aa049a2" y="293.030614"/>
     <use style="fill:#008000;stroke:#008000;" x="300.699759" xlink:href="#m174aa049a2" y="292.621161"/>
     <use style="fill:#008000;stroke:#008000;" x="297.598609" xlink:href="#m174aa049a2" y="292.197469"/>
     <use style="fill:#008000;stroke:#008000;" x="294.546489" xlink:href="#m174aa049a2" y="291.761912"/>
     <use style="fill:#008000;stroke:#008000;" x="291.542246" xlink:href="#m174aa049a2" y="291.316264"/>
     <use style="fill:#008000;stroke:#008000;" x="288.584761" xlink:href="#m174aa049a2" y="290.86185"/>
     <use style="fill:#008000;stroke:#008000;" x="285.672952" xlink:href="#m174aa049a2" y="290.399774"/>
     <use style="fill:#008000;stroke:#008000;" x="282.805768" xlink:href="#m174aa049a2" y="289.931107"/>
     <use style="fill:#008000;stroke:#008000;" x="279.982191" xlink:href="#m174aa049a2" y="289.456996"/>
     <use style="fill:#008000;stroke:#008000;" x="277.201235" xlink:href="#m174aa049a2" y="288.978646"/>
     <use style="fill:#008000;stroke:#008000;" x="274.461941" xlink:href="#m174aa049a2" y="288.497226"/>
     <use style="fill:#008000;stroke:#008000;" x="271.76338" xlink:href="#m174aa049a2" y="288.013759"/>
     <use style="fill:#008000;stroke:#008000;" x="269.104649" xlink:href="#m174aa049a2" y="287.529058"/>
     <use style="fill:#008000;stroke:#008000;" x="266.484875" xlink:href="#m174aa049a2" y="287.043737"/>
     <use style="fill:#008000;stroke:#008000;" x="263.903207" xlink:href="#m174aa049a2" y="286.558284"/>
     <use style="fill:#008000;stroke:#008000;" x="261.358819" xlink:href="#m174aa049a2" y="286.07315"/>
     <use style="fill:#008000;stroke:#008000;" x="258.850909" xlink:href="#m174aa049a2" y="285.588804"/>
     <use style="fill:#008000;stroke:#008000;" x="256.378699" xlink:href="#m174aa049a2" y="285.10573"/>
     <use style="fill:#008000;stroke:#008000;" x="253.941433" xlink:href="#m174aa049a2" y="284.624359"/>
     <use style="fill:#008000;stroke:#008000;" x="251.538373" xlink:href="#m174aa049a2" y="284.144974"/>
     <use style="fill:#008000;stroke:#008000;" x="249.168806" xlink:href="#m174aa049a2" y="283.667616"/>
     <use style="fill:#008000;stroke:#008000;" x="246.832035" xlink:href="#m174aa049a2" y="283.192037"/>
     <use style="fill:#008000;stroke:#008000;" x="244.527385" xlink:href="#m174aa049a2" y="282.717693"/>
     <use style="fill:#008000;stroke:#008000;" x="242.254198" xlink:href="#m174aa049a2" y="282.243761"/>
     <use style="fill:#008000;stroke:#008000;" x="240.011834" xlink:href="#m174aa049a2" y="281.769174"/>
     <use style="fill:#008000;stroke:#008000;" x="237.799669" xlink:href="#m174aa049a2" y="281.292617"/>
     <use style="fill:#008000;stroke:#008000;" x="235.617099" xlink:href="#m174aa049a2" y="280.812507"/>
     <use style="fill:#008000;stroke:#008000;" x="233.463534" xlink:href="#m174aa049a2" y="280.326942"/>
     <use style="fill:#008000;stroke:#008000;" x="231.338398" xlink:href="#m174aa049a2" y="279.833659"/>
     <use style="fill:#008000;stroke:#008000;" x="229.241133" xlink:href="#m174aa049a2" y="279.33001"/>
     <use style="fill:#008000;stroke:#008000;" x="227.171193" xlink:href="#m174aa049a2" y="278.812967"/>
     <use style="fill:#008000;stroke:#008000;" x="225.128049" xlink:href="#m174aa049a2" y="278.279153"/>
     <use style="fill:#008000;stroke:#008000;" x="223.111184" xlink:href="#m174aa049a2" y="277.724867"/>
     <use style="fill:#008000;stroke:#008000;" x="221.120093" xlink:href="#m174aa049a2" y="277.146082"/>
     <use style="fill:#008000;stroke:#008000;" x="219.154286" xlink:href="#m174aa049a2" y="276.53839"/>
     <use style="fill:#008000;stroke:#008000;" x="217.213284" xlink:href="#m174aa049a2" y="275.896891"/>
     <use style="fill:#008000;stroke:#008000;" x="215.29662" xlink:href="#m174aa049a2" y="275.216033"/>
     <use style="fill:#008000;stroke:#008000;" x="213.40384" xlink:href="#m174aa049a2" y="274.489424"/>
     <use style="fill:#008000;stroke:#008000;" x="211.5345" xlink:href="#m174aa049a2" y="273.709628"/>
     <use style="fill:#008000;stroke:#008000;" x="209.688168" xlink:href="#m174aa049a2" y="272.867976"/>
     <use style="fill:#008000;stroke:#008000;" x="207.86442" xlink:href="#m174aa049a2" y="271.954392"/>
     <use style="fill:#008000;stroke:#008000;" x="206.062846" xlink:href="#m174aa049a2" y="270.957228"/>
     <use style="fill:#008000;stroke:#008000;" x="204.283043" xlink:href="#m174aa049a2" y="269.863134"/>
     <use style="fill:#008000;stroke:#008000;" x="202.524619" xlink:href="#m174aa049a2" y="268.656955"/>
     <use style="fill:#008000;stroke:#008000;" x="200.787191" xlink:href="#m174aa049a2" y="267.321696"/>
     <use style="fill:#008000;stroke:#008000;" x="199.070386" xlink:href="#m174aa049a2" y="265.838584"/>
     <use style="fill:#008000;stroke:#008000;" x="197.373837" xlink:href="#m174aa049a2" y="264.187263"/>
     <use style="fill:#008000;stroke:#008000;" x="195.69719" xlink:href="#m174aa049a2" y="262.34615"/>
     <use style="fill:#008000;stroke:#008000;" x="194.040095" xlink:href="#m174aa049a2" y="260.292981"/>
     <use style="fill:#008000;stroke:#008000;" x="192.402213" xlink:href="#m174aa049a2" y="258.005532"/>
     <use style="fill:#008000;stroke:#008000;" x="190.783212" xlink:href="#m174aa049a2" y="255.462491"/>
     <use style="fill:#008000;stroke:#008000;" x="189.182766" xlink:href="#m174aa049a2" y="252.644456"/>
     <use style="fill:#008000;stroke:#008000;" x="187.600559" xlink:href="#m174aa049a2" y="249.534982"/>
     <use style="fill:#008000;stroke:#008000;" x="186.036281" xlink:href="#m174aa049a2" y="246.121641"/>
     <use style="fill:#008000;stroke:#008000;" x="184.489629" xlink:href="#m174aa049a2" y="242.397004"/>
     <use style="fill:#008000;stroke:#008000;" x="182.960306" xlink:href="#m174aa049a2" y="238.359509"/>
     <use style="fill:#008000;stroke:#008000;" x="181.448022" xlink:href="#m174aa049a2" y="234.014134"/>
     <use style="fill:#008000;stroke:#008000;" x="179.952496" xlink:href="#m174aa049a2" y="229.372864"/>
     <use style="fill:#008000;stroke:#008000;" x="178.473449" xlink:href="#m174aa049a2" y="224.454902"/>
     <use style="fill:#008000;stroke:#008000;" x="177.01061" xlink:href="#m174aa049a2" y="219.28666"/>
     <use style="fill:#008000;stroke:#008000;" x="175.563716" xlink:href="#m174aa049a2" y="213.901527"/>
     <use style="fill:#008000;stroke:#008000;" x="174.132506" xlink:href="#m174aa049a2" y="208.339483"/>
     <use style="fill:#008000;stroke:#008000;" x="172.716726" xlink:href="#m174aa049a2" y="202.646571"/>
     <use style="fill:#008000;stroke:#008000;" x="171.31613" xlink:href="#m174aa049a2" y="196.874263"/>
     <use style="fill:#008000;stroke:#008000;" x="169.930473" xlink:href="#m174aa049a2" y="191.078713"/>
     <use style="fill:#008000;stroke:#008000;" x="168.559518" xlink:href="#m174aa049a2" y="185.319857"/>
     <use style="fill:#008000;stroke:#008000;" x="167.203032" xlink:href="#m174aa049a2" y="179.660281"/>
     <use style="fill:#008000;stroke:#008000;" x="165.860787" xlink:href="#m174aa049a2" y="174.163816"/>
     <use style="fill:#008000;stroke:#008000;" x="164.532561" xlink:href="#m174aa049a2" y="168.893779"/>
     <use style="fill:#008000;stroke:#008000;" x="163.218135" xlink:href="#m174aa049a2" y="163.910891"/>
     <use style="fill:#008000;stroke:#008000;" x="161.917294" xlink:href="#m174aa049a2" y="159.270921"/>
     <use style="fill:#008000;stroke:#008000;" x="160.629829" xlink:href="#m174aa049a2" y="155.022206"/>
     <use style="fill:#008000;stroke:#008000;" x="159.355536" xlink:href="#m174aa049a2" y="151.203266"/>
     <use style="fill:#008000;stroke:#008000;" x="158.094212" xlink:href="#m174aa049a2" y="147.840734"/>
     <use style="fill:#008000;stroke:#008000;" x="156.845662" xlink:href="#m174aa049a2" y="144.94786"/>
     <use style="fill:#008000;stroke:#008000;" x="155.609691" xlink:href="#m174aa049a2" y="142.523781"/>
     <use style="fill:#008000;stroke:#008000;" x="154.386111" xlink:href="#m174aa049a2" y="140.553672"/>
     <use style="fill:#008000;stroke:#008000;" x="153.174736" xlink:href="#m174aa049a2" y="139.009804"/>
     <use style="fill:#008000;stroke:#008000;" x="151.975385" xlink:href="#m174aa049a2" y="137.85342"/>
     <use style="fill:#008000;stroke:#008000;" x="150.787879" xlink:href="#m174aa049a2" y="137.037269"/>
     <use style="fill:#008000;stroke:#008000;" x="149.612044" xlink:href="#m174aa049a2" y="136.508534"/>
     <use style="fill:#008000;stroke:#008000;" x="148.447708" xlink:href="#m174aa049a2" y="136.211918"/>
     <use style="fill:#008000;stroke:#008000;" x="147.294705" xlink:href="#m174aa049a2" y="136.092615"/>
     <use style="fill:#008000;stroke:#008000;" x="146.152868" xlink:href="#m174aa049a2" y="136.098954"/>
     <use style="fill:#008000;stroke:#008000;" x="145.022037" xlink:href="#m174aa049a2" y="136.184588"/>
     <use style="fill:#008000;stroke:#008000;" x="143.902054" xlink:href="#m174aa049a2" y="136.310129"/>
     <use style="fill:#008000;stroke:#008000;" x="142.792762" xlink:href="#m174aa049a2" y="136.444235"/>
     <use style="fill:#008000;stroke:#008000;" x="141.69401" xlink:href="#m174aa049a2" y="136.564168"/>
     <use style="fill:#008000;stroke:#008000;" x="140.605648" xlink:href="#m174aa049a2" y="136.655876"/>
     <use style="fill:#008000;stroke:#008000;" x="139.527529" xlink:href="#m174aa049a2" y="136.713644"/>
     <use style="fill:#008000;stroke:#008000;" x="138.45951" xlink:href="#m174aa049a2" y="136.739337"/>
     <use style="fill:#008000;stroke:#008000;" x="137.401449" xlink:href="#m174aa049a2" y="136.741268"/>
     <use style="fill:#008000;stroke:#008000;" x="136.353208" xlink:href="#m174aa049a2" y="136.732703"/>
     <use style="fill:#008000;stroke:#008000;" x="135.31465" xlink:href="#m174aa049a2" y="136.730048"/>
     <use style="fill:#008000;stroke:#008000;" x="134.285643" xlink:href="#m174aa049a2" y="136.750841"/>
     <use style="fill:#008000;stroke:#008000;" x="133.266054" xlink:href="#m174aa049a2" y="136.811673"/>
     <use style="fill:#008000;stroke:#008000;" x="132.255755" xlink:href="#m174aa049a2" y="136.926254"/>
     <use style="fill:#008000;stroke:#008000;" x="131.25462" xlink:href="#m174aa049a2" y="137.103855"/>
     <use style="fill:#008000;stroke:#008000;" x="130.262524" xlink:href="#m174aa049a2" y="137.348294"/>
     <use style="fill:#008000;stroke:#008000;" x="129.279346" xlink:href="#m174aa049a2" y="137.657617"/>
     <use style="fill:#008000;stroke:#008000;" x="128.304966" xlink:href="#m174aa049a2" y="138.024492"/>
     <use style="fill:#008000;stroke:#008000;" x="127.339267" xlink:href="#m174aa049a2" y="138.437208"/>
     <use style="fill:#008000;stroke:#008000;" x="126.382133" xlink:href="#m174aa049a2" y="138.881114"/>
     <use style="fill:#008000;stroke:#008000;" x="125.43345" xlink:href="#m174aa049a2" y="139.340227"/>
     <use style="fill:#008000;stroke:#008000;" x="124.493107" xlink:href="#m174aa049a2" y="139.798767"/>
     <use style="fill:#008000;stroke:#008000;" x="123.560995" xlink:href="#m174aa049a2" y="140.242402"/>
     <use style="fill:#008000;stroke:#008000;" x="122.637005" xlink:href="#m174aa049a2" y="140.65908"/>
     <use style="fill:#008000;stroke:#008000;" x="121.721033" xlink:href="#m174aa049a2" y="141.039419"/>
     <use style="fill:#008000;stroke:#008000;" x="120.812975" xlink:href="#m174aa049a2" y="141.37672"/>
     <use style="fill:#008000;stroke:#008000;" x="119.912727" xlink:href="#m174aa049a2" y="141.666707"/>
     <use style="fill:#008000;stroke:#008000;" x="119.020191" xlink:href="#m174aa049a2" y="141.907125"/>
     <use style="fill:#008000;stroke:#008000;" x="118.135267" xlink:href="#m174aa049a2" y="142.097315"/>
     <use style="fill:#008000;stroke:#008000;" x="117.257858" xlink:href="#m174aa049a2" y="142.237819"/>
     <use style="fill:#008000;stroke:#008000;" x="116.387869" xlink:href="#m174aa049a2" y="142.330067"/>
     <use style="fill:#008000;stroke:#008000;" x="115.525206" xlink:href="#m174aa049a2" y="142.376124"/>
     <use style="fill:#008000;stroke:#008000;" x="114.669777" xlink:href="#m174aa049a2" y="142.378497"/>
     <use style="fill:#008000;stroke:#008000;" x="113.821492" xlink:href="#m174aa049a2" y="142.339972"/>
     <use style="fill:#008000;stroke:#008000;" x="112.980261" xlink:href="#m174aa049a2" y="142.263473"/>
     <use style="fill:#008000;stroke:#008000;" x="112.145997" xlink:href="#m174aa049a2" y="142.151959"/>
     <use style="fill:#008000;stroke:#008000;" x="111.318613" xlink:href="#m174aa049a2" y="142.008346"/>
     <use style="fill:#008000;stroke:#008000;" x="110.498025" xlink:href="#m174aa049a2" y="141.835457"/>
     <use style="fill:#008000;stroke:#008000;" x="109.684149" xlink:href="#m174aa049a2" y="141.636"/>
     <use style="fill:#008000;stroke:#008000;" x="108.876904" xlink:href="#m174aa049a2" y="141.412561"/>
     <use style="fill:#008000;stroke:#008000;" x="108.076209" xlink:href="#m174aa049a2" y="141.167584"/>
     <use style="fill:#008000;stroke:#008000;" x="107.281983" xlink:href="#m174aa049a2" y="140.903352"/>
     <use style="fill:#008000;stroke:#008000;" x="106.49415" xlink:href="#m174aa049a2" y="140.621959"/>
     <use style="fill:#008000;stroke:#008000;" x="105.712633" xlink:href="#m174aa049a2" y="140.325291"/>
     <use style="fill:#008000;stroke:#008000;" x="104.937354" xlink:href="#m174aa049a2" y="140.015026"/>
     <use style="fill:#008000;stroke:#008000;" x="104.168241" xlink:href="#m174aa049a2" y="139.692663"/>
     <use style="fill:#008000;stroke:#008000;" x="103.405221" xlink:href="#m174aa049a2" y="139.359571"/>
     <use style="fill:#008000;stroke:#008000;" x="102.648219" xlink:href="#m174aa049a2" y="139.017048"/>
     <use style="fill:#008000;stroke:#008000;" x="101.897167" xlink:href="#m174aa049a2" y="138.666376"/>
     <use style="fill:#008000;stroke:#008000;" x="101.151994" xlink:href="#m174aa049a2" y="138.308842"/>
     <use style="fill:#008000;stroke:#008000;" x="100.412632" xlink:href="#m174aa049a2" y="137.945739"/>
     <use style="fill:#008000;stroke:#008000;" x="99.679011" xlink:href="#m174aa049a2" y="137.578337"/>
     <use style="fill:#008000;stroke:#008000;" x="98.951067" xlink:href="#m174aa049a2" y="137.207855"/>
     <use style="fill:#008000;stroke:#008000;" x="98.228734" xlink:href="#m174aa049a2" y="136.835443"/>
     <use style="fill:#008000;stroke:#008000;" x="97.511946" xlink:href="#m174aa049a2" y="136.462187"/>
     <use style="fill:#008000;stroke:#008000;" x="96.80064" xlink:href="#m174aa049a2" y="136.089123"/>
     <use style="fill:#008000;stroke:#008000;" x="96.094753" xlink:href="#m174aa049a2" y="135.717267"/>
     <use style="fill:#008000;stroke:#008000;" x="95.394225" xlink:href="#m174aa049a2" y="135.347623"/>
     <use style="fill:#008000;stroke:#008000;" x="94.698993" xlink:href="#m174aa049a2" y="134.981169"/>
     <use style="fill:#008000;stroke:#008000;" x="94.008998" xlink:href="#m174aa049a2" y="134.618825"/>
     <use style="fill:#008000;stroke:#008000;" x="93.324182" xlink:href="#m174aa049a2" y="134.261414"/>
     <use style="fill:#008000;stroke:#008000;" x="92.644486" xlink:href="#m174aa049a2" y="133.909634"/>
     <use style="fill:#008000;stroke:#008000;" x="91.969853" xlink:href="#m174aa049a2" y="133.564061"/>
     <use style="fill:#008000;stroke:#008000;" x="91.300226" xlink:href="#m174aa049a2" y="133.225185"/>
     <use style="fill:#008000;stroke:#008000;" x="90.63555" xlink:href="#m174aa049a2" y="132.893458"/>
     <use style="fill:#008000;stroke:#008000;" x="89.975771" xlink:href="#m174aa049a2" y="132.569347"/>
     <use style="fill:#008000;stroke:#008000;" x="89.320834" xlink:href="#m174aa049a2" y="132.25335"/>
     <use style="fill:#008000;stroke:#008000;" x="88.670686" xlink:href="#m174aa049a2" y="131.945989"/>
     <use style="fill:#008000;stroke:#008000;" x="88.025276" xlink:href="#m174aa049a2" y="131.64777"/>
     <use style="fill:#008000;stroke:#008000;" x="87.38455" xlink:href="#m174aa049a2" y="131.359156"/>
     <use style="fill:#008000;stroke:#008000;" x="86.74846" xlink:href="#m174aa049a2" y="131.080545"/>
     <use style="fill:#008000;stroke:#008000;" x="86.116953" xlink:href="#m174aa049a2" y="130.812308"/>
     <use style="fill:#008000;stroke:#008000;" x="85.489982" xlink:href="#m174aa049a2" y="130.554843"/>
     <use style="fill:#008000;stroke:#008000;" x="84.867497" xlink:href="#m174aa049a2" y="130.308643"/>
     <use style="fill:#008000;stroke:#008000;" x="84.249451" xlink:href="#m174aa049a2" y="130.074337"/>
     <use style="fill:#008000;stroke:#008000;" x="83.635795" xlink:href="#m174aa049a2" y="129.85268"/>
     <use style="fill:#008000;stroke:#008000;" x="83.026484" xlink:href="#m174aa049a2" y="129.644504"/>
     <use style="fill:#008000;stroke:#008000;" x="82.421472" xlink:href="#m174aa049a2" y="129.450634"/>
     <use style="fill:#008000;stroke:#008000;" x="81.820713" xlink:href="#m174aa049a2" y="129.271823"/>
     <use style="fill:#008000;stroke:#008000;" x="81.224162" xlink:href="#m174aa049a2" y="129.108741"/>
     <use style="fill:#008000;stroke:#008000;" x="80.631775" xlink:href="#m174aa049a2" y="128.962014"/>
     <use style="fill:#008000;stroke:#008000;" x="80.04351" xlink:href="#m174aa049a2" y="128.832298"/>
     <use style="fill:#008000;stroke:#008000;" x="79.459323" xlink:href="#m174aa049a2" y="128.720348"/>
     <use style="fill:#008000;stroke:#008000;" x="78.879171" xlink:href="#m174aa049a2" y="128.627026"/>
     <use style="fill:#008000;stroke:#008000;" x="78.303014" xlink:href="#m174aa049a2" y="128.553236"/>
     <use style="fill:#008000;stroke:#008000;" x="77.730809" xlink:href="#m174aa049a2" y="128.499804"/>
     <use style="fill:#008000;stroke:#008000;" x="77.162517" xlink:href="#m174aa049a2" y="128.467344"/>
     <use style="fill:#008000;stroke:#008000;" x="76.598098" xlink:href="#m174aa049a2" y="128.456194"/>
     <use style="fill:#008000;stroke:#008000;" x="76.037512" xlink:href="#m174aa049a2" y="128.466431"/>
     <use style="fill:#008000;stroke:#008000;" x="75.48072" xlink:href="#m174aa049a2" y="128.497988"/>
     <use style="fill:#008000;stroke:#008000;" x="74.927684" xlink:href="#m174aa049a2" y="128.550784"/>
     <use style="fill:#008000;stroke:#008000;" x="74.378365" xlink:href="#m174aa049a2" y="128.624815"/>
     <use style="fill:#008000;stroke:#008000;" x="73.832727" xlink:href="#m174aa049a2" y="128.72013"/>
    </g>
   </g>
   <g id="patch_3">
    <path d="M 57.6 307.584 
L 57.6 41.472 
" style="fill:none;stroke:#000000;stroke-linecap:square;stroke-linejoin:miter;stroke-width:0.8;"/>
   </g>
   <g id="patch_4">
    <path d="M 414.72 307.584 
L 414.72 41.472 
" style="fill:none;stroke:#000000;stroke-linecap:square;stroke-linejoin:miter;stroke-width:0.8;"/>
   </g>
   <g id="patch_5">
    <path d="M 57.6 307.584 
L 414.72 307.584 
" style="fill:none;stroke:#000000;stroke-linecap:square;stroke-linejoin:miter;stroke-width:0.8;"/>
   </g>
   <g id="patch_6">
    <path d="M 57.6 41.472 
L 414.72 41.472 
" style="fill:none;stroke:#000000;stroke-linecap:square;stroke-linejoin:miter;stroke-width:0.8;"/>
   </g>
   <g id="legend_1">
    <g id="patch_7">
     <path d="M 305.537188 93.506375 
L 407.72 93.506375 
Q 409.72 93.506375 409.72 91.506375 
L 409.72 48.472 
Q 409.72 46.472 407.72 46.472 
L 305.537188 46.472 
Q 303.537188 46.472 303.537188 48.472 
L 303.537188 91.506375 
Q 303.537188 93.506375 305.537188 93.506375 
z
" style="fill:#ffffff;opacity:0.8;stroke:#cccccc;stroke-linejoin:miter;"/>
    </g>
    <g id="line2d_24">
     <path d="M 307.537188 54.570438 
L 327.537188 54.570438 
" style="fill:none;stroke:#0000ff;stroke-linecap:square;stroke-width:1.5;"/>
    </g>
    <g id="line2d_25"/>
    <g id="text_12">
     <!-- reflectance -->
     <g transform="translate(335.537188 58.070438)scale(0.1 -0.1)">
      <defs>
       <path d="M 41.109375 46.296875 
Q 39.59375 47.171875 37.8125 47.578125 
Q 36.03125 48 33.890625 48 
Q 26.265625 48 22.1875 43.046875 
Q 18.109375 38.09375 18.109375 28.8125 
L 18.109375 0 
L 9.078125 0 
L 9.078125 54.6875 
L 18.109375 54.6875 
L 18.109375 46.1875 
Q 20.953125 51.171875 25.484375 53.578125 
Q 30.03125 56 36.53125 56 
Q 37.453125 56 38.578125 55.875 
Q 39.703125 55.765625 41.0625 55.515625 
z
" id="DejaVuSans-114"/>
       <path d="M 37.109375 75.984375 
L 37.109375 68.5 
L 28.515625 68.5 
Q 23.6875 68.5 21.796875 66.546875 
Q 19.921875 64.59375 19.921875 59.515625 
L 19.921875 54.6875 
L 34.71875 54.6875 
L 34.71875 47.703125 
L 19.921875 47.703125 
L 19.921875 0 
L 10.890625 0 
L 10.890625 47.703125 
L 2.296875 47.703125 
L 2.296875 54.6875 
L 10.890625 54.6875 
L 10.890625 58.5 
Q 10.890625 67.625 15.140625 71.796875 
Q 19.390625 75.984375 28.609375 75.984375 
z
" id="DejaVuSans-102"/>
       <path d="M 48.78125 52.59375 
L 48.78125 44.1875 
Q 44.96875 46.296875 41.140625 47.34375 
Q 37.3125 48.390625 33.40625 48.390625 
Q 24.65625 48.390625 19.8125 42.84375 
Q 14.984375 37.3125 14.984375 27.296875 
Q 14.984375 17.28125 19.8125 11.734375 
Q 24.65625 6.203125 33.40625 6.203125 
Q 37.3125 6.203125 41.140625 7.25 
Q 44.96875 8.296875 48.78125 10.40625 
L 48.78125 2.09375 
Q 45.015625 0.34375 40.984375 -0.53125 
Q 36.96875 -1.421875 32.421875 -1.421875 
Q 20.0625 -1.421875 12.78125 6.34375 
Q 5.515625 14.109375 5.515625 27.296875 
Q 5.515625 40.671875 12.859375 48.328125 
Q 20.21875 56 33.015625 56 
Q 37.15625 56 41.109375 55.140625 
Q 45.0625 54.296875 48.78125 52.59375 
z
" id="DejaVuSans-99"/>
      </defs>
      <use xlink:href="#DejaVuSans-114"/>
      <use x="38.863281" xlink:href="#DejaVuSans-101"/>
      <use x="100.386719" xlink:href="#DejaVuSans-102"/>
      <use x="135.591797" xlink:href="#DejaVuSans-108"/>
      <use x="163.375" xlink:href="#DejaVuSans-101"/>
      <use x="224.898438" xlink:href="#DejaVuSans-99"/>
      <use x="279.878906" xlink:href="#DejaVuSans-116"/>
      <use x="319.087891" xlink:href="#DejaVuSans-97"/>
      <use x="380.367188" xlink:href="#DejaVuSans-110"/>
      <use x="443.746094" xlink:href="#DejaVuSans-99"/>
      <use x="498.726562" xlink:href="#DejaVuSans-101"/>
     </g>
    </g>
    <g id="line2d_26">
     <path d="M 307.537188 69.248563 
L 327.537188 69.248563 
" style="fill:none;stroke:#ff0000;stroke-linecap:square;stroke-width:1.5;"/>
    </g>
    <g id="line2d_27"/>
    <g id="text_13">
     <!-- transmittance -->
     <g transform="translate(335.537188 72.748563)scale(0.1 -0.1)">
      <defs>
       <path d="M 44.28125 53.078125 
L 44.28125 44.578125 
Q 40.484375 46.53125 36.375 47.5 
Q 32.28125 48.484375 27.875 48.484375 
Q 21.1875 48.484375 17.84375 46.4375 
Q 14.5 44.390625 14.5 40.28125 
Q 14.5 37.15625 16.890625 35.375 
Q 19.28125 33.59375 26.515625 31.984375 
L 29.59375 31.296875 
Q 39.15625 29.25 43.1875 25.515625 
Q 47.21875 21.78125 47.21875 15.09375 
Q 47.21875 7.46875 41.1875 3.015625 
Q 35.15625 -1.421875 24.609375 -1.421875 
Q 20.21875 -1.421875 15.453125 -0.5625 
Q 10.6875 0.296875 5.421875 2 
L 5.421875 11.28125 
Q 10.40625 8.6875 15.234375 7.390625 
Q 20.0625 6.109375 24.8125 6.109375 
Q 31.15625 6.109375 34.5625 8.28125 
Q 37.984375 10.453125 37.984375 14.40625 
Q 37.984375 18.0625 35.515625 20.015625 
Q 33.0625 21.96875 24.703125 23.78125 
L 21.578125 24.515625 
Q 13.234375 26.265625 9.515625 29.90625 
Q 5.8125 33.546875 5.8125 39.890625 
Q 5.8125 47.609375 11.28125 51.796875 
Q 16.75 56 26.8125 56 
Q 31.78125 56 36.171875 55.265625 
Q 40.578125 54.546875 44.28125 53.078125 
z
" id="DejaVuSans-115"/>
       <path d="M 9.421875 54.6875 
L 18.40625 54.6875 
L 18.40625 0 
L 9.421875 0 
z
M 9.421875 75.984375 
L 18.40625 75.984375 
L 18.40625 64.59375 
L 9.421875 64.59375 
z
" id="DejaVuSans-105"/>
      </defs>
      <use xlink:href="#DejaVuSans-116"/>
      <use x="39.208984" xlink:href="#DejaVuSans-114"/>
      <use x="80.322266" xlink:href="#DejaVuSans-97"/>
      <use x="141.601562" xlink:href="#DejaVuSans-110"/>
      <use x="204.980469" xlink:href="#DejaVuSans-115"/>
      <use x="257.080078" xlink:href="#DejaVuSans-109"/>
      <use x="354.492188" xlink:href="#DejaVuSans-105"/>
      <use x="382.275391" xlink:href="#DejaVuSans-116"/>
      <use x="421.484375" xlink:href="#DejaVuSans-116"/>
      <use x="460.693359" xlink:href="#DejaVuSans-97"/>
      <use x="521.972656" xlink:href="#DejaVuSans-110"/>
      <use x="585.351562" xlink:href="#DejaVuSans-99"/>
      <use x="640.332031" xlink:href="#DejaVuSans-101"/>
     </g>
    </g>
    <g id="line2d_28">
     <path d="M 307.537188 83.926688 
L 327.537188 83.926688 
" style="fill:none;stroke:#008000;stroke-linecap:square;stroke-width:1.5;"/>
    </g>
    <g id="line2d_29">
     <g>
      <use style="fill:#008000;stroke:#008000;" x="317.537188" xlink:href="#m174aa049a2" y="83.926688"/>
     </g>
    </g>
    <g id="text_14">
     <!-- loss -->
     <g transform="translate(335.537188 87.426688)scale(0.1 -0.1)">
      <defs>
       <path d="M 30.609375 48.390625 
Q 23.390625 48.390625 19.1875 42.75 
Q 14.984375 37.109375 14.984375 27.296875 
Q 14.984375 17.484375 19.15625 11.84375 
Q 23.34375 6.203125 30.609375 6.203125 
Q 37.796875 6.203125 41.984375 11.859375 
Q 46.1875 17.53125 46.1875 27.296875 
Q 46.1875 37.015625 41.984375 42.703125 
Q 37.796875 48.390625 30.609375 48.390625 
z
M 30.609375 56 
Q 42.328125 56 49.015625 48.375 
Q 55.71875 40.765625 55.71875 27.296875 
Q 55.71875 13.875 49.015625 6.21875 
Q 42.328125 -1.421875 30.609375 -1.421875 
Q 18.84375 -1.421875 12.171875 6.21875 
Q 5.515625 13.875 5.515625 27.296875 
Q 5.515625 40.765625 12.171875 48.375 
Q 18.84375 56 30.609375 56 
z
" id="DejaVuSans-111"/>
      </defs>
      <use xlink:href="#DejaVuSans-108"/>
      <use x="27.783203" xlink:href="#DejaVuSans-111"/>
      <use x="88.964844" xlink:href="#DejaVuSans-115"/>
      <use x="141.064453" xlink:href="#DejaVuSans-115"/>
     </g>
    </g>
   </g>
  </g>
 </g>
 <defs>
  <clipPath id="p779deffa2a">
   <rect height="266.112" width="357.12" x="57.6" y="41.472"/>
  </clipPath>
 </defs>
</svg>
